# MagicaVoxel @ Ephtracy

# group
g Revolver

# material
mtllib Revolver.mtl
usemtl palette

# normals
vn -1 0 0
vn 1 0 0
vn 0 0 1
vn 0 0 -1
vn 0 -1 0
vn 0 1 0

# texcoords
vt 0.923828 0.5
vt 0.931641 0.5
vt 0.935547 0.5
vt 0.958984 0.5

# verts
v -7.5 0 1.5
v -7.5 0 0.5
v -7.5 0 -0.5
v -7.5 0 -1.5
v -7.5 6 1.5
v -7.5 6 0.5
v -7.5 6 -0.5
v -7.5 6 -1.5
v -6.5 6 1.5
v -6.5 6 0.5
v -6.5 6 -0.5
v -6.5 6 -1.5
v -6.5 7 1.5
v -6.5 7 0.5
v -6.5 7 -0.5
v -6.5 7 -1.5
v -6.5 8 0.5
v -6.5 8 -0.5
v -4.5 3 1.5
v -4.5 3 0.5
v -4.5 3 -0.5
v -4.5 3 -1.5
v -4.5 4 1.5
v -4.5 4 0.5
v -4.5 4 -0.5
v -4.5 4 -1.5
v -3.5 4 1.5
v -3.5 4 0.5
v -3.5 4 -0.5
v -3.5 4 -1.5
v -3.5 5 1.5
v -3.5 5 0.5
v -3.5 5 -0.5
v -3.5 5 -1.5
v 6.5 7 1.5
v 6.5 7 0.5
v 6.5 7 -0.5
v 6.5 7 -1.5
v 6.5 8 1.5
v 6.5 8 0.5
v 6.5 8 -0.5
v 6.5 8 -1.5
v 6.5 9 0.5
v 6.5 9 -0.5
v -5.5 0 1.5
v -5.5 0 -1.5
v -5.5 1 1.5
v -5.5 1 -1.5
v -5.5 3 1.5
v -5.5 3 0.5
v -5.5 3 -0.5
v -5.5 3 -1.5
v -5.5 5 1.5
v -5.5 5 0.5
v -5.5 5 -0.5
v -5.5 5 -1.5
v -5.5 7 0.5
v -5.5 7 -0.5
v -5.5 8 0.5
v -5.5 8 -0.5
v -4.5 1 1.5
v -4.5 1 -1.5
v -4.5 3 1.5
v -4.5 3 0.5
v -4.5 3 -0.5
v -4.5 3 -1.5
v -3.5 3 1.5
v -3.5 3 0.5
v -3.5 3 -0.5
v -3.5 3 -1.5
v -3.5 4 1.5
v -3.5 4 0.5
v -3.5 4 -0.5
v -3.5 4 -1.5
v -2.5 3 0.5
v -2.5 3 -0.5
v -2.5 4 1.5
v -2.5 4 0.5
v -2.5 4 -0.5
v -2.5 4 -1.5
v -2.5 5 1.5
v -2.5 5 -1.5
v 7.5 5 1.5
v 7.5 5 -1.5
v 7.5 6 0.5
v 7.5 6 -0.5
v 7.5 8 1.5
v 7.5 8 0.5
v 7.5 8 -0.5
v 7.5 8 -1.5
v 7.5 9 0.5
v 7.5 9 -0.5
v -7.5 0 1.5
v -7.5 6 1.5
v -6.5 6 1.5
v -6.5 7 1.5
v -5.5 0 1.5
v -5.5 1 1.5
v -5.5 3 1.5
v -5.5 5 1.5
v -4.5 1 1.5
v -4.5 3 1.5
v -4.5 4 1.5
v -3.5 3 1.5
v -3.5 4 1.5
v -3.5 5 1.5
v -2.5 4 1.5
v -2.5 5 1.5
v 6.5 6 1.5
v 6.5 7 1.5
v 6.5 8 1.5
v 7.5 5 1.5
v 7.5 8 1.5
v -6.5 7 0.5
v -6.5 8 0.5
v -5.5 3 0.5
v -5.5 5 0.5
v -5.5 7 0.5
v -5.5 8 0.5
v -4.5 3 0.5
v -4.5 4 0.5
v -3.5 3 0.5
v -3.5 4 0.5
v -3.5 5 0.5
v -2.5 3 0.5
v -2.5 4 0.5
v 6.5 8 0.5
v 6.5 9 0.5
v 7.5 8 0.5
v 7.5 9 0.5
v -6.5 7 -0.5
v -6.5 8 -0.5
v -5.5 3 -0.5
v -5.5 5 -0.5
v -5.5 7 -0.5
v -5.5 8 -0.5
v -4.5 3 -0.5
v -4.5 4 -0.5
v -3.5 3 -0.5
v -3.5 4 -0.5
v -3.5 5 -0.5
v -2.5 3 -0.5
v -2.5 4 -0.5
v 6.5 8 -0.5
v 6.5 9 -0.5
v 7.5 8 -0.5
v 7.5 9 -0.5
v -7.5 0 -1.5
v -7.5 6 -1.5
v -6.5 6 -1.5
v -6.5 7 -1.5
v -5.5 0 -1.5
v -5.5 1 -1.5
v -5.5 3 -1.5
v -5.5 5 -1.5
v -4.5 1 -1.5
v -4.5 3 -1.5
v -4.5 4 -1.5
v -3.5 3 -1.5
v -3.5 4 -1.5
v -3.5 5 -1.5
v -2.5 4 -1.5
v -2.5 5 -1.5
v 6.5 6 -1.5
v 6.5 7 -1.5
v 6.5 8 -1.5
v 7.5 5 -1.5
v 7.5 8 -1.5
v -7.5 0 1.5
v -5.5 0 1.5
v -7.5 0 0.5
v -6.5 0 0.5
v -7.5 0 -0.5
v -6.5 0 -0.5
v -7.5 0 -1.5
v -5.5 0 -1.5
v -5.5 1 1.5
v -4.5 1 1.5
v -5.5 1 -1.5
v -4.5 1 -1.5
v -4.5 3 1.5
v -3.5 3 1.5
v -4.5 3 0.5
v -3.5 3 0.5
v -2.5 3 0.5
v -4.5 3 -0.5
v -3.5 3 -0.5
v -2.5 3 -0.5
v -4.5 3 -1.5
v -3.5 3 -1.5
v -3.5 4 1.5
v -2.5 4 1.5
v -3.5 4 0.5
v -2.5 4 0.5
v -3.5 4 -0.5
v -2.5 4 -0.5
v -3.5 4 -1.5
v -2.5 4 -1.5
v -5.5 5 1.5
v -3.5 5 1.5
v -2.5 5 1.5
v 7.5 5 1.5
v -5.5 5 0.5
v -3.5 5 0.5
v -5.5 5 -0.5
v -3.5 5 -0.5
v -5.5 5 -1.5
v -3.5 5 -1.5
v -2.5 5 -1.5
v 7.5 5 -1.5
v -5.5 3 1.5
v -4.5 3 1.5
v -5.5 3 0.5
v -4.5 3 0.5
v -5.5 3 -0.5
v -4.5 3 -0.5
v -5.5 3 -1.5
v -4.5 3 -1.5
v -4.5 4 1.5
v -3.5 4 1.5
v -4.5 4 0.5
v -3.5 4 0.5
v -4.5 4 -0.5
v -3.5 4 -0.5
v -4.5 4 -1.5
v -3.5 4 -1.5
v -7.5 6 1.5
v -6.5 6 1.5
v -7.5 6 0.5
v -6.5 6 0.5
v -7.5 6 -0.5
v -6.5 6 -0.5
v -7.5 6 -1.5
v -6.5 6 -1.5
v -6.5 7 1.5
v 6.5 7 1.5
v -6.5 7 0.5
v -5.5 7 0.5
v 6.5 7 0.5
v -6.5 7 -0.5
v -5.5 7 -0.5
v 6.5 7 -0.5
v -6.5 7 -1.5
v 6.5 7 -1.5
v 6.5 8 1.5
v 7.5 8 1.5
v -6.5 8 0.5
v -5.5 8 0.5
v 6.5 8 0.5
v 7.5 8 0.5
v -6.5 8 -0.5
v -5.5 8 -0.5
v 6.5 8 -0.5
v 7.5 8 -0.5
v 6.5 8 -1.5
v 7.5 8 -1.5
v 6.5 9 0.5
v 7.5 9 0.5
v 6.5 9 -0.5
v 7.5 9 -0.5

# faces
f 5/3/1 2/3/1 1/3/1
f 6/1/1 3/1/1 2/1/1
f 6/3/1 2/3/1 5/3/1
f 7/3/1 4/3/1 3/3/1
f 7/1/1 3/1/1 6/1/1
f 8/3/1 4/3/1 7/3/1
f 13/2/1 10/2/1 9/2/1
f 14/1/1 11/1/1 10/1/1
f 14/2/1 10/2/1 13/2/1
f 15/2/1 12/2/1 11/2/1
f 15/1/1 11/1/1 14/1/1
f 16/2/1 12/2/1 15/2/1
f 17/1/1 15/1/1 14/1/1
f 18/1/1 15/1/1 17/1/1
f 23/1/1 20/1/1 19/1/1
f 24/1/1 20/1/1 23/1/1
f 25/1/1 22/1/1 21/1/1
f 26/1/1 22/1/1 25/1/1
f 31/3/1 28/3/1 27/3/1
f 32/3/1 28/3/1 31/3/1
f 33/3/1 30/3/1 29/3/1
f 34/3/1 30/3/1 33/3/1
f 39/3/1 36/3/1 35/3/1
f 40/1/1 37/1/1 36/1/1
f 40/3/1 36/3/1 39/3/1
f 41/3/1 38/3/1 37/3/1
f 41/1/1 37/1/1 40/1/1
f 42/3/1 38/3/1 41/3/1
f 43/1/1 41/1/1 40/1/1
f 44/1/1 41/1/1 43/1/1
f 45/3/2 46/3/2 47/3/2
f 47/3/2 46/3/2 48/3/2
f 49/3/2 50/3/2 53/3/2
f 53/3/2 50/3/2 54/3/2
f 51/3/2 52/3/2 55/3/2
f 55/3/2 52/3/2 56/3/2
f 57/1/2 58/1/2 59/1/2
f 59/1/2 58/1/2 60/1/2
f 61/3/2 62/3/2 63/3/2
f 63/3/2 62/3/2 64/3/2
f 64/3/2 62/3/2 65/3/2
f 65/3/2 62/3/2 66/3/2
f 67/1/2 68/1/2 71/1/2
f 71/1/2 68/1/2 72/1/2
f 69/1/2 70/1/2 73/1/2
f 73/1/2 70/1/2 74/1/2
f 75/3/2 76/3/2 78/3/2
f 78/3/2 76/3/2 79/3/2
f 77/3/2 78/3/2 81/3/2
f 79/3/2 80/3/2 81/3/2
f 78/3/2 79/3/2 81/3/2
f 81/3/2 80/3/2 82/3/2
f 83/3/2 84/3/2 85/3/2
f 85/3/2 84/3/2 86/3/2
f 83/3/2 85/3/2 87/3/2
f 85/1/2 86/1/2 88/1/2
f 87/3/2 85/3/2 88/3/2
f 86/3/2 84/3/2 89/3/2
f 88/1/2 86/1/2 89/1/2
f 89/3/2 84/3/2 90/3/2
f 88/1/2 89/1/2 91/1/2
f 91/1/2 89/1/2 92/1/2
f 95/3/3 94/3/3 93/3/3
f 97/3/3 95/3/3 93/3/3
f 98/3/3 95/3/3 97/3/3
f 99/3/3 95/3/3 98/3/3
f 100/3/3 95/3/3 99/3/3
f 101/3/3 99/3/3 98/3/3
f 102/3/3 99/3/3 101/3/3
f 104/1/3 103/1/3 102/1/3
f 105/1/3 103/1/3 104/1/3
f 106/3/3 95/3/3 100/3/3
f 107/3/3 106/3/3 105/3/3
f 108/3/3 95/3/3 106/3/3
f 108/3/3 106/3/3 107/3/3
f 109/2/3 96/2/3 95/2/3
f 109/3/3 95/3/3 108/3/3
f 110/2/3 96/2/3 109/2/3
f 112/3/3 109/3/3 108/3/3
f 112/3/3 111/3/3 110/3/3
f 112/3/3 110/3/3 109/3/3
f 113/3/3 111/3/3 112/3/3
f 118/1/3 115/1/3 114/1/3
f 119/1/3 115/1/3 118/1/3
f 120/1/3 117/1/3 116/1/3
f 121/1/3 117/1/3 120/1/3
f 123/1/3 117/1/3 121/1/3
f 124/1/3 117/1/3 123/1/3
f 125/3/3 123/3/3 122/3/3
f 126/3/3 123/3/3 125/3/3
f 129/1/3 128/1/3 127/1/3
f 130/1/3 128/1/3 129/1/3
f 131/1/4 132/1/4 135/1/4
f 135/1/4 132/1/4 136/1/4
f 133/1/4 134/1/4 137/1/4
f 137/1/4 134/1/4 138/1/4
f 138/1/4 134/1/4 140/1/4
f 140/1/4 134/1/4 141/1/4
f 139/3/4 140/3/4 142/3/4
f 142/3/4 140/3/4 143/3/4
f 144/1/4 145/1/4 146/1/4
f 146/1/4 145/1/4 147/1/4
f 148/3/4 149/3/4 150/3/4
f 148/3/4 150/3/4 152/3/4
f 152/3/4 150/3/4 153/3/4
f 153/3/4 150/3/4 154/3/4
f 154/3/4 150/3/4 155/3/4
f 153/3/4 154/3/4 156/3/4
f 156/3/4 154/3/4 157/3/4
f 157/1/4 158/1/4 159/1/4
f 159/1/4 158/1/4 160/1/4
f 155/3/4 150/3/4 161/3/4
f 160/3/4 161/3/4 162/3/4
f 161/3/4 150/3/4 163/3/4
f 162/3/4 161/3/4 163/3/4
f 150/2/4 151/2/4 164/2/4
f 163/3/4 150/3/4 164/3/4
f 164/2/4 151/2/4 165/2/4
f 163/3/4 164/3/4 167/3/4
f 165/3/4 166/3/4 167/3/4
f 164/3/4 165/3/4 167/3/4
f 167/3/4 166/3/4 168/3/4
f 171/3/5 170/3/5 169/3/5
f 172/3/5 170/3/5 171/3/5
f 173/1/5 172/1/5 171/1/5
f 174/3/5 170/3/5 172/3/5
f 174/1/5 172/1/5 173/1/5
f 175/3/5 174/3/5 173/3/5
f 176/3/5 170/3/5 174/3/5
f 176/3/5 174/3/5 175/3/5
f 179/3/5 178/3/5 177/3/5
f 180/3/5 178/3/5 179/3/5
f 183/1/5 182/1/5 181/1/5
f 184/1/5 182/1/5 183/1/5
f 186/3/5 184/3/5 183/3/5
f 186/3/5 185/3/5 184/3/5
f 187/3/5 185/3/5 186/3/5
f 188/3/5 185/3/5 187/3/5
f 189/1/5 187/1/5 186/1/5
f 190/1/5 187/1/5 189/1/5
f 193/3/5 192/3/5 191/3/5
f 194/3/5 192/3/5 193/3/5
f 197/3/5 196/3/5 195/3/5
f 198/3/5 196/3/5 197/3/5
f 203/3/5 200/3/5 199/3/5
f 204/3/5 200/3/5 203/3/5
f 207/3/5 206/3/5 205/3/5
f 208/3/5 206/3/5 207/3/5
f 209/3/5 202/3/5 201/3/5
f 210/3/5 202/3/5 209/3/5
f 211/3/6 212/3/6 213/3/6
f 213/3/6 212/3/6 214/3/6
f 215/3/6 216/3/6 217/3/6
f 217/3/6 216/3/6 218/3/6
f 219/1/6 220/1/6 221/1/6
f 221/1/6 220/1/6 222/1/6
f 223/1/6 224/1/6 225/1/6
f 225/1/6 224/1/6 226/1/6
f 227/3/6 228/3/6 229/3/6
f 229/3/6 228/3/6 230/3/6
f 229/1/6 230/1/6 231/1/6
f 231/1/6 230/1/6 232/1/6
f 231/3/6 232/3/6 233/3/6
f 233/3/6 232/3/6 234/3/6
f 235/2/6 236/2/6 237/2/6
f 237/2/6 236/2/6 238/2/6
f 238/2/6 236/2/6 239/2/6
f 238/2/6 239/2/6 241/2/6
f 241/2/6 239/2/6 242/2/6
f 240/2/6 241/2/6 243/2/6
f 241/2/6 242/2/6 243/2/6
f 243/2/6 242/2/6 244/2/6
f 245/3/6 246/3/6 249/3/6
f 249/3/6 246/3/6 250/3/6
f 247/1/6 248/1/6 251/1/6
f 251/1/6 248/1/6 252/1/6
f 253/3/6 254/3/6 255/3/6
f 255/3/6 254/3/6 256/3/6
f 257/1/6 258/1/6 259/1/6
f 259/1/6 258/1/6 260/1/6
