# MagicaVoxel @ Ephtracy

# group
g SloMo

# material
mtllib SloMo.mtl
usemtl palette

# normals
vn -1 0 0
vn 1 0 0
vn 0 0 1
vn 0 0 -1
vn 0 -1 0
vn 0 1 0

# texcoords
vt 0.919922 0.5
vt 0.923828 0.5
vt 0.986328 0.5

# verts
v -10 6 1
v -10 6 -1
v -10 8 1
v -10 8 -1
v -8 4 1
v -8 4 -1
v -8 6 1
v -8 6 -1
v -8 8 1
v -8 8 -1
v -8 10 1
v -8 10 -1
v -6 2 1
v -6 2 -1
v -6 4 1
v -6 4 -1
v -6 10 1
v -6 10 -1
v -6 12 1
v -6 12 -1
v -2 0 1
v -2 0 -1
v -2 2 1
v -2 2 -1
v -2 12 1
v -2 12 -1
v -2 14 1
v -2 14 -1
v 2 4 1
v 2 4 -1
v 2 6 1
v 2 6 -1
v 2 8 1
v 2 8 -1
v 2 10 1
v 2 10 -1
v 4 2 1
v 4 2 -1
v 4 4 1
v 4 4 -1
v 4 10 1
v 4 10 -1
v 4 12 1
v 4 12 -1
v 8 0 1
v 8 0 -1
v 8 2 1
v 8 2 -1
v 8 12 1
v 8 12 -1
v 8 14 1
v 8 14 -1
v 0 0 1
v 0 0 -1
v 0 6 1
v 0 6 -1
v 0 8 1
v 0 8 -1
v 0 14 1
v 0 14 -1
v 10 0 1
v 10 0 -1
v 10 14 1
v 10 14 -1
v -10 6 1
v -10 8 1
v -8 4 1
v -8 6 1
v -8 8 1
v -8 10 1
v -6 2 1
v -6 4 1
v -6 5 1
v -6 8 1
v -6 10 1
v -6 12 1
v -5 4 1
v -5 5 1
v -5 7 1
v -5 8 1
v -5 10 1
v -5 11 1
v -2 0 1
v -2 2 1
v -2 4 1
v -2 5 1
v -2 7 1
v -2 8 1
v -2 10 1
v -2 11 1
v -2 12 1
v -2 14 1
v -1 5 1
v -1 7 1
v -1 10 1
v -1 11 1
v 0 0 1
v 0 6 1
v 0 8 1
v 0 14 1
v 2 4 1
v 2 6 1
v 2 8 1
v 2 10 1
v 4 2 1
v 4 4 1
v 4 5 1
v 4 10 1
v 4 12 1
v 5 4 1
v 5 5 1
v 5 8 1
v 6 7 1
v 6 8 1
v 6 9 1
v 6 10 1
v 7 7 1
v 7 8 1
v 7 9 1
v 7 10 1
v 8 0 1
v 8 2 1
v 8 4 1
v 8 5 1
v 8 8 1
v 8 12 1
v 8 14 1
v 9 4 1
v 9 5 1
v 9 10 1
v 10 0 1
v 10 14 1
v -10 6 -1
v -10 8 -1
v -8 4 -1
v -8 6 -1
v -8 8 -1
v -8 10 -1
v -6 2 -1
v -6 4 -1
v -6 10 -1
v -6 12 -1
v -2 0 -1
v -2 2 -1
v -2 12 -1
v -2 14 -1
v 0 0 -1
v 0 6 -1
v 0 8 -1
v 0 14 -1
v 2 4 -1
v 2 6 -1
v 2 8 -1
v 2 10 -1
v 4 2 -1
v 4 4 -1
v 4 10 -1
v 4 12 -1
v 8 0 -1
v 8 2 -1
v 8 12 -1
v 8 14 -1
v 10 0 -1
v 10 14 -1
v -2 0 1
v 0 0 1
v 8 0 1
v 10 0 1
v -2 0 -1
v 0 0 -1
v 8 0 -1
v 10 0 -1
v -6 2 1
v -2 2 1
v 4 2 1
v 8 2 1
v -6 2 -1
v -2 2 -1
v 4 2 -1
v 8 2 -1
v -8 4 1
v -6 4 1
v 2 4 1
v 4 4 1
v -8 4 -1
v -6 4 -1
v 2 4 -1
v 4 4 -1
v -10 6 1
v -8 6 1
v 0 6 1
v 2 6 1
v -10 6 -1
v -8 6 -1
v 0 6 -1
v 2 6 -1
v -10 8 1
v -8 8 1
v 0 8 1
v 2 8 1
v -10 8 -1
v -8 8 -1
v 0 8 -1
v 2 8 -1
v -8 10 1
v -6 10 1
v 2 10 1
v 4 10 1
v -8 10 -1
v -6 10 -1
v 2 10 -1
v 4 10 -1
v -6 12 1
v -2 12 1
v 4 12 1
v 8 12 1
v -6 12 -1
v -2 12 -1
v 4 12 -1
v 8 12 -1
v -2 14 1
v 0 14 1
v 8 14 1
v 10 14 1
v -2 14 -1
v 0 14 -1
v 8 14 -1
v 10 14 -1

# faces
f 3/3/1 2/3/1 1/3/1
f 4/3/1 2/3/1 3/3/1
f 7/3/1 6/3/1 5/3/1
f 8/3/1 6/3/1 7/3/1
f 11/3/1 10/3/1 9/3/1
f 12/3/1 10/3/1 11/3/1
f 15/3/1 14/3/1 13/3/1
f 16/3/1 14/3/1 15/3/1
f 19/3/1 18/3/1 17/3/1
f 20/3/1 18/3/1 19/3/1
f 23/3/1 22/3/1 21/3/1
f 24/3/1 22/3/1 23/3/1
f 27/3/1 26/3/1 25/3/1
f 28/3/1 26/3/1 27/3/1
f 31/3/1 30/3/1 29/3/1
f 32/3/1 30/3/1 31/3/1
f 35/3/1 34/3/1 33/3/1
f 36/3/1 34/3/1 35/3/1
f 39/3/1 38/3/1 37/3/1
f 40/3/1 38/3/1 39/3/1
f 43/3/1 42/3/1 41/3/1
f 44/3/1 42/3/1 43/3/1
f 47/3/1 46/3/1 45/3/1
f 48/3/1 46/3/1 47/3/1
f 51/3/1 50/3/1 49/3/1
f 52/3/1 50/3/1 51/3/1
f 53/3/2 54/3/2 55/3/2
f 55/3/2 54/3/2 56/3/2
f 57/3/2 58/3/2 59/3/2
f 59/3/2 58/3/2 60/3/2
f 61/3/2 62/3/2 63/3/2
f 63/3/2 62/3/2 64/3/2
f 68/3/3 66/3/3 65/3/3
f 69/3/3 66/3/3 68/3/3
f 72/3/3 68/3/3 67/3/3
f 72/3/3 70/3/3 69/3/3
f 72/3/3 69/3/3 68/3/3
f 73/3/3 70/3/3 72/3/3
f 74/3/3 70/3/3 73/3/3
f 75/3/3 70/3/3 74/3/3
f 77/3/3 72/3/3 71/3/3
f 77/1/3 73/1/3 72/1/3
f 78/3/3 74/3/3 73/3/3
f 78/1/3 73/1/3 77/1/3
f 79/3/3 74/3/3 78/3/3
f 80/2/3 75/2/3 74/2/3
f 80/3/3 74/3/3 79/3/3
f 81/3/3 76/3/3 75/3/3
f 81/2/3 75/2/3 80/2/3
f 82/3/3 76/3/3 81/3/3
f 84/3/3 77/3/3 71/3/3
f 85/2/3 78/2/3 77/2/3
f 85/3/3 77/3/3 84/3/3
f 86/3/3 79/3/3 78/3/3
f 86/2/3 78/2/3 85/2/3
f 87/2/3 80/2/3 79/2/3
f 87/3/3 79/3/3 86/3/3
f 88/3/3 81/3/3 80/3/3
f 88/2/3 80/2/3 87/2/3
f 89/2/3 82/2/3 81/2/3
f 89/3/3 81/3/3 88/3/3
f 90/3/3 76/3/3 82/3/3
f 90/2/3 82/2/3 89/2/3
f 91/3/3 76/3/3 90/3/3
f 93/3/3 86/3/3 85/3/3
f 93/3/3 85/3/3 84/3/3
f 93/3/3 84/3/3 83/3/3
f 93/2/3 87/2/3 86/2/3
f 94/3/3 89/3/3 88/3/3
f 94/2/3 87/2/3 93/2/3
f 94/3/3 88/3/3 87/3/3
f 95/1/3 90/1/3 89/1/3
f 95/3/3 89/3/3 94/3/3
f 96/3/3 92/3/3 91/3/3
f 96/1/3 90/1/3 95/1/3
f 96/3/3 91/3/3 90/3/3
f 97/3/3 95/3/3 94/3/3
f 97/3/3 93/3/3 83/3/3
f 97/3/3 96/3/3 95/3/3
f 97/3/3 94/3/3 93/3/3
f 98/3/3 96/3/3 97/3/3
f 99/3/3 96/3/3 98/3/3
f 100/3/3 92/3/3 96/3/3
f 100/3/3 96/3/3 99/3/3
f 102/3/3 99/3/3 98/3/3
f 103/3/3 99/3/3 102/3/3
f 106/3/3 102/3/3 101/3/3
f 106/3/3 104/3/3 103/3/3
f 106/3/3 103/3/3 102/3/3
f 107/3/3 104/3/3 106/3/3
f 108/3/3 104/3/3 107/3/3
f 110/3/3 106/3/3 105/3/3
f 110/1/3 107/1/3 106/1/3
f 111/2/3 108/2/3 107/2/3
f 111/1/3 107/1/3 110/1/3
f 112/2/3 108/2/3 111/2/3
f 113/3/3 111/3/3 110/3/3
f 113/3/3 112/3/3 111/3/3
f 114/2/3 108/2/3 112/2/3
f 114/3/3 112/3/3 113/3/3
f 115/2/3 108/2/3 114/2/3
f 116/3/3 109/3/3 108/3/3
f 116/2/3 108/2/3 115/2/3
f 117/2/3 115/2/3 114/2/3
f 117/3/3 113/3/3 110/3/3
f 117/2/3 114/2/3 113/2/3
f 118/2/3 115/2/3 117/2/3
f 119/3/3 116/3/3 115/3/3
f 119/2/3 115/2/3 118/2/3
f 120/3/3 109/3/3 116/3/3
f 120/3/3 116/3/3 119/3/3
f 122/3/3 110/3/3 105/3/3
f 122/3/3 118/3/3 117/3/3
f 122/3/3 117/3/3 110/3/3
f 123/3/3 118/3/3 122/3/3
f 124/3/3 118/3/3 123/3/3
f 125/2/3 119/2/3 118/2/3
f 125/3/3 118/3/3 124/3/3
f 125/2/3 120/2/3 119/2/3
f 126/3/3 109/3/3 120/3/3
f 128/1/3 124/1/3 123/1/3
f 128/3/3 123/3/3 122/3/3
f 128/3/3 122/3/3 121/3/3
f 129/2/3 125/2/3 124/2/3
f 129/1/3 124/1/3 128/1/3
f 130/3/3 127/3/3 126/3/3
f 130/2/3 125/2/3 129/2/3
f 130/2/3 120/2/3 125/2/3
f 130/3/3 126/3/3 120/3/3
f 131/3/3 129/3/3 128/3/3
f 131/3/3 128/3/3 121/3/3
f 131/3/3 130/3/3 129/3/3
f 132/3/3 127/3/3 130/3/3
f 132/3/3 130/3/3 131/3/3
f 133/3/4 134/3/4 136/3/4
f 136/3/4 134/3/4 137/3/4
f 135/3/4 136/3/4 140/3/4
f 137/3/4 138/3/4 140/3/4
f 136/3/4 137/3/4 140/3/4
f 140/3/4 138/3/4 141/3/4
f 139/3/4 140/3/4 144/3/4
f 141/3/4 142/3/4 144/3/4
f 140/3/4 141/3/4 144/3/4
f 144/3/4 142/3/4 145/3/4
f 143/3/4 144/3/4 147/3/4
f 145/3/4 146/3/4 147/3/4
f 144/3/4 145/3/4 147/3/4
f 147/3/4 146/3/4 148/3/4
f 148/3/4 146/3/4 149/3/4
f 149/3/4 146/3/4 150/3/4
f 148/3/4 149/3/4 152/3/4
f 152/3/4 149/3/4 153/3/4
f 151/3/4 152/3/4 156/3/4
f 153/3/4 154/3/4 156/3/4
f 152/3/4 153/3/4 156/3/4
f 156/3/4 154/3/4 157/3/4
f 155/3/4 156/3/4 160/3/4
f 157/3/4 158/3/4 160/3/4
f 156/3/4 157/3/4 160/3/4
f 160/3/4 158/3/4 161/3/4
f 159/3/4 160/3/4 163/3/4
f 161/3/4 162/3/4 163/3/4
f 160/3/4 161/3/4 163/3/4
f 163/3/4 162/3/4 164/3/4
f 169/3/5 166/3/5 165/3/5
f 170/3/5 166/3/5 169/3/5
f 171/3/5 168/3/5 167/3/5
f 172/3/5 168/3/5 171/3/5
f 177/3/5 174/3/5 173/3/5
f 178/3/5 174/3/5 177/3/5
f 179/3/5 176/3/5 175/3/5
f 180/3/5 176/3/5 179/3/5
f 185/3/5 182/3/5 181/3/5
f 186/3/5 182/3/5 185/3/5
f 187/3/5 184/3/5 183/3/5
f 188/3/5 184/3/5 187/3/5
f 193/3/5 190/3/5 189/3/5
f 194/3/5 190/3/5 193/3/5
f 195/3/5 192/3/5 191/3/5
f 196/3/5 192/3/5 195/3/5
f 197/3/6 198/3/6 201/3/6
f 201/3/6 198/3/6 202/3/6
f 199/3/6 200/3/6 203/3/6
f 203/3/6 200/3/6 204/3/6
f 205/3/6 206/3/6 209/3/6
f 209/3/6 206/3/6 210/3/6
f 207/3/6 208/3/6 211/3/6
f 211/3/6 208/3/6 212/3/6
f 213/3/6 214/3/6 217/3/6
f 217/3/6 214/3/6 218/3/6
f 215/3/6 216/3/6 219/3/6
f 219/3/6 216/3/6 220/3/6
f 221/3/6 222/3/6 225/3/6
f 225/3/6 222/3/6 226/3/6
f 223/3/6 224/3/6 227/3/6
f 227/3/6 224/3/6 228/3/6
