# MagicaVoxel @ Ephtracy

# group
g female1

# material
mtllib female1.mtl
usemtl palette

# normals
vn -1 0 0
vn 1 0 0
vn 0 0 1
vn 0 0 -1
vn 0 -1 0
vn 0 1 0

# texcoords
vt 0.0605469 0.5
vt 0.271484 0.5
vt 0.537109 0.5
vt 0.958984 0.5
vt 0.986328 0.5
vt 0.990234 0.5

# verts
v -6 10 -0
v -6 10 -2
v -6 12 -0
v -6 12 -2
v -5 12 -0
v -5 12 -2
v -5 16 -0
v -5 16 -2
v -5 17 -0
v -5 17 -2
v -5 19 -0
v -5 19 -2
v -4 10 -0
v -4 10 -1
v -4 11 -0
v -4 11 -1
v -4 19 -0
v -4 19 -2
v -4 20 -0
v -4 20 -2
v -4 22 -1
v -4 22 -4
v -4 24 2
v -4 24 1
v -4 25 -0
v -4 25 -1
v -4 26 1
v -4 26 -0
v -4 27 2
v -4 27 -4
v -3 0 2
v -3 0 -0
v -3 0 -1
v -3 0 -2
v -3 1 2
v -3 1 1
v -3 1 -0
v -3 1 -1
v -3 2 1
v -3 2 -0
v -3 2 -2
v -3 5 1
v -3 5 -0
v -3 5 -1
v -3 5 -2
v -3 6 1
v -3 6 -1
v -3 6 -2
v -3 10 -0
v -3 10 -1
v -3 11 -1
v -3 11 -2
v -3 12 1
v -3 12 -0
v -3 16 -0
v -3 17 -0
v -3 20 1
v -3 20 -0
v -3 21 -1
v -3 21 -4
v -3 22 2
v -3 22 -1
v -3 22 -4
v -3 24 2
v -3 24 1
v -3 25 -0
v -3 25 -1
v -3 26 1
v -3 26 -0
v -3 27 2
v -3 27 -4
v -3 28 2
v -3 28 -4
v -2 18 2
v -2 18 1
v -2 20 2
v -2 20 1
v -2 21 2
v -2 21 -1
v -2 22 2
v -2 22 -1
v -1 20 -0
v -1 20 -2
v -1 21 -0
v -1 21 -2
v 1 0 2
v 1 0 -0
v 1 0 -1
v 1 0 -2
v 1 1 2
v 1 1 1
v 1 1 -0
v 1 1 -1
v 1 2 1
v 1 2 -0
v 1 2 -2
v 1 5 1
v 1 5 -0
v 1 5 -1
v 1 5 -2
v 1 6 1
v 1 6 -0
v 1 6 -1
v 1 9 -0
v 1 9 -1
v 1 18 2
v 1 18 1
v 1 20 2
v 1 20 1
v 5 10 -0
v 5 10 -2
v 5 11 -0
v 5 11 -2
v -5 10 -0
v -5 10 -2
v -5 11 -0
v -5 11 -2
v -1 0 2
v -1 0 -0
v -1 0 -1
v -1 0 -2
v -1 1 2
v -1 1 1
v -1 1 -0
v -1 1 -1
v -1 2 1
v -1 2 -0
v -1 2 -2
v -1 5 1
v -1 5 -0
v -1 5 -1
v -1 5 -2
v -1 6 1
v -1 6 -0
v -1 6 -1
v -1 9 -0
v -1 9 -1
v -1 18 2
v -1 18 1
v -1 20 2
v -1 20 1
v 1 20 -0
v 1 20 -2
v 1 21 -0
v 1 21 -2
v 2 18 2
v 2 18 1
v 2 20 2
v 2 20 1
v 2 21 2
v 2 21 -1
v 2 22 2
v 2 22 -1
v 3 0 2
v 3 0 -0
v 3 0 -1
v 3 0 -2
v 3 1 2
v 3 1 1
v 3 1 -0
v 3 1 -1
v 3 2 1
v 3 2 -0
v 3 2 -2
v 3 5 1
v 3 5 -0
v 3 5 -1
v 3 5 -2
v 3 6 1
v 3 6 -1
v 3 6 -2
v 3 10 -0
v 3 10 -1
v 3 11 -1
v 3 11 -2
v 3 12 1
v 3 12 -0
v 3 16 -0
v 3 17 -0
v 3 20 1
v 3 20 -0
v 3 21 -1
v 3 21 -4
v 3 22 2
v 3 22 -1
v 3 22 -4
v 3 24 2
v 3 24 1
v 3 25 -0
v 3 25 -1
v 3 26 1
v 3 26 -0
v 3 27 2
v 3 27 -4
v 3 28 2
v 3 28 -4
v 4 10 -0
v 4 10 -1
v 4 11 -0
v 4 11 -1
v 4 19 -0
v 4 19 -2
v 4 20 -0
v 4 20 -2
v 4 22 -1
v 4 22 -4
v 4 24 2
v 4 24 1
v 4 25 -0
v 4 25 -1
v 4 26 1
v 4 26 -0
v 4 27 2
v 4 27 -4
v 5 12 -0
v 5 12 -2
v 5 16 -0
v 5 16 -2
v 5 17 -0
v 5 17 -2
v 5 19 -0
v 5 19 -2
v 6 10 -0
v 6 10 -2
v 6 12 -0
v 6 12 -2
v -4 24 2
v -4 27 2
v -3 0 2
v -3 1 2
v -3 22 2
v -3 24 2
v -3 26 2
v -3 27 2
v -3 28 2
v -2 18 2
v -2 20 2
v -2 21 2
v -2 22 2
v -2 24 2
v -2 26 2
v -2 27 2
v -1 0 2
v -1 1 2
v -1 18 2
v -1 20 2
v -1 22 2
v -1 23 2
v -1 24 2
v -1 26 2
v -1 27 2
v 1 0 2
v 1 1 2
v 1 18 2
v 1 20 2
v 1 22 2
v 1 23 2
v 1 24 2
v 1 26 2
v 1 27 2
v 2 18 2
v 2 20 2
v 2 21 2
v 2 22 2
v 2 24 2
v 2 26 2
v 2 27 2
v 3 0 2
v 3 1 2
v 3 22 2
v 3 24 2
v 3 26 2
v 3 27 2
v 3 28 2
v 4 24 2
v 4 27 2
v -3 1 1
v -3 2 1
v -3 5 1
v -3 6 1
v -3 12 1
v -3 20 1
v -2 18 1
v -2 20 1
v -1 1 1
v -1 2 1
v -1 5 1
v -1 6 1
v -1 17 1
v -1 18 1
v -1 20 1
v 1 1 1
v 1 2 1
v 1 5 1
v 1 6 1
v 1 17 1
v 1 18 1
v 1 20 1
v 2 18 1
v 2 20 1
v 3 1 1
v 3 2 1
v 3 5 1
v 3 6 1
v 3 12 1
v 3 20 1
v -6 10 -0
v -6 12 -0
v -5 10 -0
v -5 11 -0
v -5 12 -0
v -5 16 -0
v -5 17 -0
v -5 19 -0
v -4 10 -0
v -4 11 -0
v -4 19 -0
v -4 20 -0
v -4 25 -0
v -4 26 -0
v -3 2 -0
v -3 5 -0
v -3 10 -0
v -3 12 -0
v -3 16 -0
v -3 17 -0
v -3 20 -0
v -3 25 -0
v -3 26 -0
v -1 2 -0
v -1 5 -0
v -1 20 -0
v -1 21 -0
v 1 2 -0
v 1 5 -0
v 1 20 -0
v 1 21 -0
v 3 2 -0
v 3 5 -0
v 3 10 -0
v 3 12 -0
v 3 16 -0
v 3 17 -0
v 3 20 -0
v 3 25 -0
v 3 26 -0
v 4 10 -0
v 4 11 -0
v 4 19 -0
v 4 20 -0
v 4 25 -0
v 4 26 -0
v 5 10 -0
v 5 11 -0
v 5 12 -0
v 5 16 -0
v 5 17 -0
v 5 19 -0
v 6 10 -0
v 6 12 -0
v -4 22 -1
v -4 25 -1
v -3 0 -1
v -3 1 -1
v -3 21 -1
v -3 22 -1
v -3 25 -1
v -2 21 -1
v -2 22 -1
v -1 0 -1
v -1 1 -1
v -1 6 -1
v -1 9 -1
v 1 0 -1
v 1 1 -1
v 1 6 -1
v 1 9 -1
v 2 21 -1
v 2 22 -1
v 3 0 -1
v 3 1 -1
v 3 21 -1
v 3 22 -1
v 3 25 -1
v 4 22 -1
v 4 25 -1
v -4 24 1
v -4 26 1
v -3 24 1
v -3 26 1
v 3 24 1
v 3 26 1
v 4 24 1
v 4 26 1
v -3 0 -0
v -3 1 -0
v -1 0 -0
v -1 1 -0
v -1 6 -0
v -1 9 -0
v 1 0 -0
v 1 1 -0
v 1 6 -0
v 1 9 -0
v 3 0 -0
v 3 1 -0
v -4 10 -1
v -4 11 -1
v -3 5 -1
v -3 6 -1
v -3 10 -1
v -3 11 -1
v -1 5 -1
v -1 6 -1
v 1 5 -1
v 1 6 -1
v 3 5 -1
v 3 6 -1
v 3 10 -1
v 3 11 -1
v 4 10 -1
v 4 11 -1
v -6 10 -2
v -6 12 -2
v -5 10 -2
v -5 11 -2
v -5 12 -2
v -5 16 -2
v -5 17 -2
v -5 19 -2
v -4 19 -2
v -4 20 -2
v -3 0 -2
v -3 2 -2
v -3 5 -2
v -3 6 -2
v -3 11 -2
v -3 12 -2
v -3 16 -2
v -3 17 -2
v -1 0 -2
v -1 2 -2
v -1 5 -2
v -1 19 -2
v -1 20 -2
v -1 21 -2
v 1 0 -2
v 1 2 -2
v 1 5 -2
v 1 19 -2
v 1 20 -2
v 1 21 -2
v 3 0 -2
v 3 2 -2
v 3 5 -2
v 3 6 -2
v 3 11 -2
v 3 12 -2
v 3 16 -2
v 3 17 -2
v 4 19 -2
v 4 20 -2
v 5 10 -2
v 5 11 -2
v 5 12 -2
v 5 16 -2
v 5 17 -2
v 5 19 -2
v 6 10 -2
v 6 12 -2
v -4 22 -4
v -4 27 -4
v -3 21 -4
v -3 22 -4
v -3 27 -4
v -3 28 -4
v 3 21 -4
v 3 22 -4
v 3 27 -4
v 3 28 -4
v 4 22 -4
v 4 27 -4
v -3 0 2
v -1 0 2
v 1 0 2
v 3 0 2
v -3 0 -0
v -1 0 -0
v 1 0 -0
v 3 0 -0
v -3 0 -1
v -1 0 -1
v 1 0 -1
v 3 0 -1
v -3 0 -2
v -1 0 -2
v 1 0 -2
v 3 0 -2
v -3 1 -0
v -1 1 -0
v 1 1 -0
v 3 1 -0
v -3 1 -1
v -1 1 -1
v 1 1 -1
v 3 1 -1
v -3 5 1
v -1 5 1
v 1 5 1
v 3 5 1
v -3 5 -0
v -1 5 -0
v 1 5 -0
v 3 5 -0
v -1 6 1
v 1 6 1
v -1 6 -0
v 1 6 -0
v -3 6 -1
v -1 6 -1
v 1 6 -1
v 3 6 -1
v -3 6 -2
v 3 6 -2
v -1 9 -0
v 1 9 -0
v -1 9 -1
v 1 9 -1
v -6 10 -0
v -5 10 -0
v -4 10 -0
v -3 10 -0
v 3 10 -0
v 4 10 -0
v 5 10 -0
v 6 10 -0
v -4 10 -1
v -3 10 -1
v 3 10 -1
v 4 10 -1
v -6 10 -2
v -5 10 -2
v 5 10 -2
v 6 10 -2
v -5 11 -0
v -4 11 -0
v 4 11 -0
v 5 11 -0
v -4 11 -1
v -3 11 -1
v 3 11 -1
v 4 11 -1
v -5 11 -2
v -3 11 -2
v 3 11 -2
v 5 11 -2
v -2 18 2
v -1 18 2
v 1 18 2
v 2 18 2
v -2 18 1
v -1 18 1
v 1 18 1
v 2 18 1
v -2 21 2
v 2 21 2
v -1 21 -0
v 1 21 -0
v -3 21 -1
v -2 21 -1
v 2 21 -1
v 3 21 -1
v -1 21 -2
v 1 21 -2
v -2 21 -3
v 2 21 -3
v -3 21 -4
v 3 21 -4
v -3 22 2
v -2 22 2
v 2 22 2
v 3 22 2
v -4 22 -1
v -3 22 -1
v -2 22 -1
v 2 22 -1
v 3 22 -1
v 4 22 -1
v -4 22 -4
v -3 22 -4
v 3 22 -4
v 4 22 -4
v -4 24 2
v -3 24 2
v 3 24 2
v 4 24 2
v -4 24 1
v -3 24 1
v 3 24 1
v 4 24 1
v -4 25 -0
v -3 25 -0
v 3 25 -0
v 4 25 -0
v -4 25 -1
v -3 25 -1
v 3 25 -1
v 4 25 -1
v -4 26 1
v -3 26 1
v 3 26 1
v 4 26 1
v -4 26 -0
v -3 26 -0
v 3 26 -0
v 4 26 -0
v -3 1 2
v -1 1 2
v 1 1 2
v 3 1 2
v -3 1 1
v -1 1 1
v 1 1 1
v 3 1 1
v -3 2 1
v -1 2 1
v 1 2 1
v 3 2 1
v -3 2 -0
v -1 2 -0
v 1 2 -0
v 3 2 -0
v -3 5 -1
v -1 5 -1
v 1 5 -1
v 3 5 -1
v -3 5 -2
v -1 5 -2
v 1 5 -2
v 3 5 -2
v -6 12 -0
v -5 12 -0
v 5 12 -0
v 6 12 -0
v -6 12 -2
v -5 12 -2
v 5 12 -2
v 6 12 -2
v -5 19 -0
v -4 19 -0
v 4 19 -0
v 5 19 -0
v -5 19 -2
v -4 19 -2
v 4 19 -2
v 5 19 -2
v -2 20 2
v -1 20 2
v 1 20 2
v 2 20 2
v -3 20 1
v -2 20 1
v -1 20 1
v 1 20 1
v 2 20 1
v 3 20 1
v -4 20 -0
v -3 20 -0
v -1 20 -0
v 1 20 -0
v 3 20 -0
v 4 20 -0
v -4 20 -2
v -1 20 -2
v 1 20 -2
v 4 20 -2
v -4 27 2
v -3 27 2
v 3 27 2
v 4 27 2
v -4 27 -4
v -3 27 -4
v 3 27 -4
v 4 27 -4
v -3 28 2
v 3 28 2
v -3 28 -4
v 3 28 -4

# faces
f 3/1/1 2/1/1 1/1/1
f 4/1/1 2/1/1 3/1/1
f 7/1/1 6/1/1 5/1/1
f 8/1/1 6/1/1 7/1/1
f 9/4/1 8/4/1 7/4/1
f 10/4/1 8/4/1 9/4/1
f 11/2/1 10/2/1 9/2/1
f 12/2/1 10/2/1 11/2/1
f 15/1/1 14/1/1 13/1/1
f 16/1/1 14/1/1 15/1/1
f 19/2/1 18/2/1 17/2/1
f 20/2/1 18/2/1 19/2/1
f 26/3/1 22/3/1 21/3/1
f 27/3/1 24/3/1 23/3/1
f 28/3/1 26/3/1 25/3/1
f 29/3/1 27/3/1 23/3/1
f 29/3/1 28/3/1 27/3/1
f 30/3/1 26/3/1 28/3/1
f 30/3/1 28/3/1 29/3/1
f 30/3/1 22/3/1 26/3/1
f 35/6/1 32/6/1 31/6/1
f 36/6/1 32/6/1 35/6/1
f 37/6/1 32/6/1 36/6/1
f 38/6/1 34/6/1 33/6/1
f 39/1/1 37/1/1 36/1/1
f 40/6/1 38/6/1 37/6/1
f 40/1/1 37/1/1 39/1/1
f 41/6/1 34/6/1 38/6/1
f 41/6/1 38/6/1 40/6/1
f 43/1/1 41/1/1 40/1/1
f 44/1/1 41/1/1 43/1/1
f 45/1/1 41/1/1 44/1/1
f 46/1/1 43/1/1 42/1/1
f 46/1/1 44/1/1 43/1/1
f 47/1/1 44/1/1 46/1/1
f 49/5/1 47/5/1 46/5/1
f 49/5/1 48/5/1 47/5/1
f 50/5/1 48/5/1 49/5/1
f 51/5/1 48/5/1 50/5/1
f 52/5/1 48/5/1 51/5/1
f 53/5/1 49/5/1 46/5/1
f 54/5/1 49/5/1 53/5/1
f 55/2/1 54/2/1 53/2/1
f 56/2/1 55/2/1 53/2/1
f 57/2/1 56/2/1 53/2/1
f 58/2/1 56/2/1 57/2/1
f 62/3/1 60/3/1 59/3/1
f 63/3/1 60/3/1 62/3/1
f 64/1/1 62/1/1 61/1/1
f 65/1/1 62/1/1 64/1/1
f 66/1/1 62/1/1 65/1/1
f 67/1/1 62/1/1 66/1/1
f 68/1/1 66/1/1 65/1/1
f 69/1/1 66/1/1 68/1/1
f 72/3/1 71/3/1 70/3/1
f 73/3/1 71/3/1 72/3/1
f 76/4/1 75/4/1 74/4/1
f 77/4/1 75/4/1 76/4/1
f 80/1/1 79/1/1 78/1/1
f 81/1/1 79/1/1 80/1/1
f 84/1/1 83/1/1 82/1/1
f 85/1/1 83/1/1 84/1/1
f 90/6/1 87/6/1 86/6/1
f 91/6/1 87/6/1 90/6/1
f 92/6/1 87/6/1 91/6/1
f 93/6/1 89/6/1 88/6/1
f 94/1/1 92/1/1 91/1/1
f 95/6/1 93/6/1 92/6/1
f 95/1/1 92/1/1 94/1/1
f 96/6/1 89/6/1 93/6/1
f 96/6/1 93/6/1 95/6/1
f 98/1/1 96/1/1 95/1/1
f 99/1/1 96/1/1 98/1/1
f 100/1/1 96/1/1 99/1/1
f 101/1/1 98/1/1 97/1/1
f 101/1/1 99/1/1 98/1/1
f 102/1/1 99/1/1 101/1/1
f 103/1/1 99/1/1 102/1/1
f 104/1/1 103/1/1 102/1/1
f 105/1/1 103/1/1 104/1/1
f 108/4/1 107/4/1 106/4/1
f 109/4/1 107/4/1 108/4/1
f 112/1/1 111/1/1 110/1/1
f 113/1/1 111/1/1 112/1/1
f 114/1/2 115/1/2 116/1/2
f 116/1/2 115/1/2 117/1/2
f 118/6/2 119/6/2 122/6/2
f 122/6/2 119/6/2 123/6/2
f 123/6/2 119/6/2 124/6/2
f 120/6/2 121/6/2 125/6/2
f 123/1/2 124/1/2 126/1/2
f 124/6/2 125/6/2 127/6/2
f 126/1/2 124/1/2 127/1/2
f 125/6/2 121/6/2 128/6/2
f 127/6/2 125/6/2 128/6/2
f 127/1/2 128/1/2 130/1/2
f 130/1/2 128/1/2 131/1/2
f 131/1/2 128/1/2 132/1/2
f 129/1/2 130/1/2 133/1/2
f 130/1/2 131/1/2 133/1/2
f 133/1/2 131/1/2 134/1/2
f 134/1/2 131/1/2 135/1/2
f 134/1/2 135/1/2 136/1/2
f 136/1/2 135/1/2 137/1/2
f 138/4/2 139/4/2 140/4/2
f 140/4/2 139/4/2 141/4/2
f 142/1/2 143/1/2 144/1/2
f 144/1/2 143/1/2 145/1/2
f 146/4/2 147/4/2 148/4/2
f 148/4/2 147/4/2 149/4/2
f 150/1/2 151/1/2 152/1/2
f 152/1/2 151/1/2 153/1/2
f 154/6/2 155/6/2 158/6/2
f 158/6/2 155/6/2 159/6/2
f 159/6/2 155/6/2 160/6/2
f 156/6/2 157/6/2 161/6/2
f 159/1/2 160/1/2 162/1/2
f 160/6/2 161/6/2 163/6/2
f 162/1/2 160/1/2 163/1/2
f 161/6/2 157/6/2 164/6/2
f 163/6/2 161/6/2 164/6/2
f 163/1/2 164/1/2 166/1/2
f 166/1/2 164/1/2 167/1/2
f 167/1/2 164/1/2 168/1/2
f 165/1/2 166/1/2 169/1/2
f 166/1/2 167/1/2 169/1/2
f 169/1/2 167/1/2 170/1/2
f 169/5/2 170/5/2 172/5/2
f 170/5/2 171/5/2 172/5/2
f 172/5/2 171/5/2 173/5/2
f 173/5/2 171/5/2 174/5/2
f 174/5/2 171/5/2 175/5/2
f 169/5/2 172/5/2 176/5/2
f 176/5/2 172/5/2 177/5/2
f 176/2/2 177/2/2 178/2/2
f 176/2/2 178/2/2 179/2/2
f 176/2/2 179/2/2 180/2/2
f 180/2/2 179/2/2 181/2/2
f 182/3/2 183/3/2 185/3/2
f 185/3/2 183/3/2 186/3/2
f 184/1/2 185/1/2 187/1/2
f 187/1/2 185/1/2 188/1/2
f 188/1/2 185/1/2 189/1/2
f 189/1/2 185/1/2 190/1/2
f 188/1/2 189/1/2 191/1/2
f 191/1/2 189/1/2 192/1/2
f 193/3/2 194/3/2 195/3/2
f 195/3/2 194/3/2 196/3/2
f 197/1/2 198/1/2 199/1/2
f 199/1/2 198/1/2 200/1/2
f 201/2/2 202/2/2 203/2/2
f 203/2/2 202/2/2 204/2/2
f 205/3/2 206/3/2 210/3/2
f 207/3/2 208/3/2 211/3/2
f 209/3/2 210/3/2 212/3/2
f 207/3/2 211/3/2 213/3/2
f 211/3/2 212/3/2 213/3/2
f 212/3/2 210/3/2 214/3/2
f 213/3/2 212/3/2 214/3/2
f 210/3/2 206/3/2 214/3/2
f 215/1/2 216/1/2 217/1/2
f 217/1/2 216/1/2 218/1/2
f 217/4/2 218/4/2 219/4/2
f 219/4/2 218/4/2 220/4/2
f 219/2/2 220/2/2 221/2/2
f 221/2/2 220/2/2 222/2/2
f 223/1/2 224/1/2 225/1/2
f 225/1/2 224/1/2 226/1/2
f 232/3/3 228/3/3 227/3/3
f 233/3/3 228/3/3 232/3/3
f 234/3/3 228/3/3 233/3/3
f 239/1/3 232/1/3 231/1/3
f 240/4/3 233/4/3 232/4/3
f 240/1/3 232/1/3 239/1/3
f 241/3/3 234/3/3 233/3/3
f 241/4/3 233/4/3 240/4/3
f 241/3/3 235/3/3 234/3/3
f 242/3/3 235/3/3 241/3/3
f 243/6/3 230/6/3 229/6/3
f 244/6/3 230/6/3 243/6/3
f 245/4/3 237/4/3 236/4/3
f 246/4/3 237/4/3 245/4/3
f 247/1/3 239/1/3 238/1/3
f 247/1/3 240/1/3 239/1/3
f 248/1/3 240/1/3 247/1/3
f 249/6/3 241/6/3 240/6/3
f 249/1/3 240/1/3 248/1/3
f 250/1/3 242/1/3 241/1/3
f 250/6/3 241/6/3 249/6/3
f 251/3/3 235/3/3 242/3/3
f 251/1/3 242/1/3 250/1/3
f 256/3/3 248/3/3 247/3/3
f 256/1/3 247/1/3 238/1/3
f 257/1/3 250/1/3 249/1/3
f 257/3/3 248/3/3 256/3/3
f 257/1/3 249/1/3 248/1/3
f 258/1/3 250/1/3 257/1/3
f 259/3/3 251/3/3 250/3/3
f 259/1/3 250/1/3 258/1/3
f 260/3/3 235/3/3 251/3/3
f 260/3/3 251/3/3 259/3/3
f 261/4/3 255/4/3 254/4/3
f 262/4/3 255/4/3 261/4/3
f 263/1/3 256/1/3 238/1/3
f 263/1/3 258/1/3 257/1/3
f 263/1/3 257/1/3 256/1/3
f 264/1/3 258/1/3 263/1/3
f 265/6/3 259/6/3 258/6/3
f 265/1/3 258/1/3 264/1/3
f 266/1/3 260/1/3 259/1/3
f 266/6/3 259/6/3 265/6/3
f 267/3/3 235/3/3 260/3/3
f 267/1/3 260/1/3 266/1/3
f 268/6/3 253/6/3 252/6/3
f 269/6/3 253/6/3 268/6/3
f 270/1/3 265/1/3 264/1/3
f 271/4/3 266/4/3 265/4/3
f 271/1/3 265/1/3 270/1/3
f 272/3/3 267/3/3 266/3/3
f 272/4/3 266/4/3 271/4/3
f 273/3/3 235/3/3 267/3/3
f 273/3/3 267/3/3 272/3/3
f 274/3/3 235/3/3 273/3/3
f 275/3/3 272/3/3 271/3/3
f 275/3/3 273/3/3 272/3/3
f 276/3/3 273/3/3 275/3/3
f 283/2/3 282/2/3 281/2/3
f 284/2/3 282/2/3 283/2/3
f 285/1/3 278/1/3 277/1/3
f 286/1/3 278/1/3 285/1/3
f 287/1/3 280/1/3 279/1/3
f 288/5/3 281/5/3 280/5/3
f 288/1/3 280/1/3 287/1/3
f 289/2/3 283/2/3 281/2/3
f 290/2/3 283/2/3 289/2/3
f 295/5/3 281/5/3 288/5/3
f 296/4/3 290/4/3 289/4/3
f 296/2/3 289/2/3 281/2/3
f 297/1/3 291/1/3 290/1/3
f 297/4/3 290/4/3 296/4/3
f 298/1/3 291/1/3 297/1/3
f 299/2/3 297/2/3 296/2/3
f 301/1/3 293/1/3 292/1/3
f 302/1/3 293/1/3 301/1/3
f 303/1/3 295/1/3 294/1/3
f 304/5/3 281/5/3 295/5/3
f 304/1/3 295/1/3 303/1/3
f 305/2/3 296/2/3 281/2/3
f 305/5/3 281/5/3 304/5/3
f 305/2/3 300/2/3 299/2/3
f 305/2/3 299/2/3 296/2/3
f 306/2/3 300/2/3 305/2/3
f 309/1/3 308/1/3 307/1/3
f 310/1/3 308/1/3 309/1/3
f 311/1/3 308/1/3 310/1/3
f 316/1/3 311/1/3 310/1/3
f 316/1/3 312/1/3 311/1/3
f 317/2/3 314/2/3 313/2/3
f 323/1/3 316/1/3 315/1/3
f 324/1/3 312/1/3 316/1/3
f 324/1/3 316/1/3 323/1/3
f 325/4/3 313/4/3 312/4/3
f 325/1/3 312/1/3 324/1/3
f 326/2/3 317/2/3 313/2/3
f 326/4/3 313/4/3 325/4/3
f 326/2/3 318/2/3 317/2/3
f 327/2/3 318/2/3 326/2/3
f 328/3/3 320/3/3 319/3/3
f 329/3/3 320/3/3 328/3/3
f 330/1/3 322/1/3 321/1/3
f 331/1/3 322/1/3 330/1/3
f 336/1/3 333/1/3 332/1/3
f 337/1/3 333/1/3 336/1/3
f 338/1/3 335/1/3 334/1/3
f 339/1/3 335/1/3 338/1/3
f 347/1/3 341/1/3 340/1/3
f 347/1/3 342/1/3 341/1/3
f 348/1/3 342/1/3 347/1/3
f 349/2/3 344/2/3 343/2/3
f 350/2/3 344/2/3 349/2/3
f 351/3/3 346/3/3 345/3/3
f 352/3/3 346/3/3 351/3/3
f 354/1/3 342/1/3 348/1/3
f 355/1/3 342/1/3 354/1/3
f 356/4/3 343/4/3 342/4/3
f 356/1/3 342/1/3 355/1/3
f 357/2/3 349/2/3 343/2/3
f 357/4/3 343/4/3 356/4/3
f 358/2/3 349/2/3 357/2/3
f 359/1/3 355/1/3 354/1/3
f 359/1/3 354/1/3 353/1/3
f 360/1/3 355/1/3 359/1/3
f 366/3/3 362/3/3 361/3/3
f 367/3/3 362/3/3 366/3/3
f 368/3/3 366/3/3 365/3/3
f 369/3/3 366/3/3 368/3/3
f 370/6/3 364/6/3 363/6/3
f 371/6/3 364/6/3 370/6/3
f 376/5/3 373/5/3 372/5/3
f 377/5/3 373/5/3 376/5/3
f 380/6/3 375/6/3 374/6/3
f 381/6/3 375/6/3 380/6/3
f 382/3/3 379/3/3 378/3/3
f 383/3/3 379/3/3 382/3/3
f 385/3/3 384/3/3 383/3/3
f 386/3/3 384/3/3 385/3/3
f 387/3/4 388/3/4 389/3/4
f 389/3/4 388/3/4 390/3/4
f 391/3/4 392/3/4 393/3/4
f 393/3/4 392/3/4 394/3/4
f 395/6/4 396/6/4 397/6/4
f 397/6/4 396/6/4 398/6/4
f 399/5/4 400/5/4 403/5/4
f 403/5/4 400/5/4 404/5/4
f 401/6/4 402/6/4 405/6/4
f 405/6/4 402/6/4 406/6/4
f 407/1/4 408/1/4 411/1/4
f 411/1/4 408/1/4 412/1/4
f 409/1/4 410/1/4 413/1/4
f 413/1/4 410/1/4 414/1/4
f 415/1/4 416/1/4 417/1/4
f 417/1/4 416/1/4 418/1/4
f 419/1/4 420/1/4 421/1/4
f 421/1/4 420/1/4 422/1/4
f 423/1/4 424/1/4 425/1/4
f 425/1/4 424/1/4 426/1/4
f 426/1/4 424/1/4 427/1/4
f 429/2/4 430/2/4 431/2/4
f 426/1/4 427/1/4 437/1/4
f 427/1/4 428/1/4 437/1/4
f 437/1/4 428/1/4 438/1/4
f 428/4/4 429/4/4 439/4/4
f 438/1/4 428/1/4 439/1/4
f 429/2/4 431/2/4 440/2/4
f 439/4/4 429/4/4 440/4/4
f 431/2/4 432/2/4 440/2/4
f 433/6/4 434/6/4 441/6/4
f 434/1/4 435/1/4 442/1/4
f 441/6/4 434/6/4 442/6/4
f 442/1/4 435/1/4 443/1/4
f 440/2/4 432/2/4 444/2/4
f 438/2/4 439/2/4 444/2/4
f 439/2/4 440/2/4 444/2/4
f 444/2/4 432/2/4 445/2/4
f 445/1/4 446/1/4 450/1/4
f 444/1/4 445/1/4 450/1/4
f 438/2/4 444/2/4 450/2/4
f 450/1/4 446/1/4 451/1/4
f 451/1/4 446/1/4 452/1/4
f 447/6/4 448/6/4 453/6/4
f 448/1/4 449/1/4 454/1/4
f 453/6/4 448/6/4 454/6/4
f 454/1/4 449/1/4 455/1/4
f 437/5/4 438/5/4 456/5/4
f 436/5/4 437/5/4 456/5/4
f 456/5/4 438/5/4 457/5/4
f 438/2/4 450/2/4 458/2/4
f 457/5/4 438/5/4 458/5/4
f 450/2/4 451/2/4 458/2/4
f 458/2/4 451/2/4 459/2/4
f 459/2/4 451/2/4 460/2/4
f 460/2/4 451/2/4 461/2/4
f 461/2/4 451/2/4 462/2/4
f 458/1/4 459/1/4 464/1/4
f 457/1/4 458/1/4 464/1/4
f 464/1/4 459/1/4 465/1/4
f 459/4/4 460/4/4 466/4/4
f 465/1/4 459/1/4 466/1/4
f 460/2/4 461/2/4 467/2/4
f 466/4/4 460/4/4 467/4/4
f 467/2/4 461/2/4 468/2/4
f 464/1/4 465/1/4 469/1/4
f 463/1/4 464/1/4 469/1/4
f 469/1/4 465/1/4 470/1/4
f 471/3/4 472/3/4 474/3/4
f 474/3/4 472/3/4 475/3/4
f 473/3/4 474/3/4 477/3/4
f 475/3/4 476/3/4 477/3/4
f 474/3/4 475/3/4 477/3/4
f 477/3/4 476/3/4 478/3/4
f 478/3/4 476/3/4 479/3/4
f 479/3/4 476/3/4 480/3/4
f 478/3/4 479/3/4 481/3/4
f 481/3/4 479/3/4 482/3/4
f 487/6/5 484/6/5 483/6/5
f 488/6/5 484/6/5 487/6/5
f 489/6/5 486/6/5 485/6/5
f 490/6/5 486/6/5 489/6/5
f 495/6/5 492/6/5 491/6/5
f 496/6/5 492/6/5 495/6/5
f 497/6/5 494/6/5 493/6/5
f 498/6/5 494/6/5 497/6/5
f 503/6/5 500/6/5 499/6/5
f 504/6/5 500/6/5 503/6/5
f 505/6/5 502/6/5 501/6/5
f 506/6/5 502/6/5 505/6/5
f 511/1/5 508/1/5 507/1/5
f 512/1/5 508/1/5 511/1/5
f 513/1/5 510/1/5 509/1/5
f 514/1/5 510/1/5 513/1/5
f 517/5/5 516/5/5 515/5/5
f 518/5/5 516/5/5 517/5/5
f 523/5/5 521/5/5 520/5/5
f 523/5/5 522/5/5 521/5/5
f 523/5/5 520/5/5 519/5/5
f 524/5/5 522/5/5 523/5/5
f 527/4/5 526/4/5 525/4/5
f 528/4/5 526/4/5 527/4/5
f 537/1/5 532/1/5 531/1/5
f 538/1/5 532/1/5 537/1/5
f 539/1/5 534/1/5 533/1/5
f 540/1/5 534/1/5 539/1/5
f 541/1/5 530/1/5 529/1/5
f 542/1/5 530/1/5 541/1/5
f 543/1/5 536/1/5 535/1/5
f 544/1/5 536/1/5 543/1/5
f 549/1/5 546/1/5 545/1/5
f 552/1/5 548/1/5 547/1/5
f 553/1/5 550/1/5 549/1/5
f 553/1/5 549/1/5 545/1/5
f 554/1/5 550/1/5 553/1/5
f 555/1/5 552/1/5 551/1/5
f 556/1/5 548/1/5 552/1/5
f 556/1/5 552/1/5 555/1/5
f 561/4/5 558/4/5 557/4/5
f 562/4/5 558/4/5 561/4/5
f 563/4/5 560/4/5 559/4/5
f 564/4/5 560/4/5 563/4/5
f 567/1/5 566/1/5 565/1/5
f 568/1/5 566/1/5 567/1/5
f 570/1/5 567/1/5 565/1/5
f 571/1/5 566/1/5 568/1/5
f 573/1/5 567/1/5 570/1/5
f 574/1/5 571/1/5 568/1/5
f 575/3/5 570/3/5 569/3/5
f 575/1/5 574/1/5 573/1/5
f 575/1/5 573/1/5 570/1/5
f 576/1/5 571/1/5 574/1/5
f 576/1/5 574/1/5 575/1/5
f 576/3/5 572/3/5 571/3/5
f 577/3/5 575/3/5 569/3/5
f 577/3/5 576/3/5 575/3/5
f 578/3/5 572/3/5 576/3/5
f 578/3/5 576/3/5 577/3/5
f 584/1/5 580/1/5 579/1/5
f 585/1/5 580/1/5 584/1/5
f 586/1/5 582/1/5 581/1/5
f 587/1/5 582/1/5 586/1/5
f 589/3/5 584/3/5 583/3/5
f 590/3/5 584/3/5 589/3/5
f 591/3/5 588/3/5 587/3/5
f 592/3/5 588/3/5 591/3/5
f 597/3/5 594/3/5 593/3/5
f 598/3/5 594/3/5 597/3/5
f 599/3/5 596/3/5 595/3/5
f 600/3/5 596/3/5 599/3/5
f 605/3/5 602/3/5 601/3/5
f 606/3/5 602/3/5 605/3/5
f 607/3/5 604/3/5 603/3/5
f 608/3/5 604/3/5 607/3/5
f 613/3/5 610/3/5 609/3/5
f 614/3/5 610/3/5 613/3/5
f 615/3/5 612/3/5 611/3/5
f 616/3/5 612/3/5 615/3/5
f 617/6/6 618/6/6 621/6/6
f 621/6/6 618/6/6 622/6/6
f 619/6/6 620/6/6 623/6/6
f 623/6/6 620/6/6 624/6/6
f 625/1/6 626/1/6 629/1/6
f 629/1/6 626/1/6 630/1/6
f 627/1/6 628/1/6 631/1/6
f 631/1/6 628/1/6 632/1/6
f 633/1/6 634/1/6 637/1/6
f 637/1/6 634/1/6 638/1/6
f 635/1/6 636/1/6 639/1/6
f 639/1/6 636/1/6 640/1/6
f 641/1/6 642/1/6 645/1/6
f 645/1/6 642/1/6 646/1/6
f 643/1/6 644/1/6 647/1/6
f 647/1/6 644/1/6 648/1/6
f 649/2/6 650/2/6 653/2/6
f 653/2/6 650/2/6 654/2/6
f 651/2/6 652/2/6 655/2/6
f 655/2/6 652/2/6 656/2/6
f 657/4/6 658/4/6 662/4/6
f 662/4/6 658/4/6 663/4/6
f 659/4/6 660/4/6 664/4/6
f 664/4/6 660/4/6 665/4/6
f 662/2/6 663/2/6 668/2/6
f 661/2/6 662/2/6 668/2/6
f 663/1/6 664/1/6 669/1/6
f 668/2/6 663/2/6 669/2/6
f 665/2/6 666/2/6 670/2/6
f 669/1/6 664/1/6 670/1/6
f 664/2/6 665/2/6 670/2/6
f 670/2/6 666/2/6 671/2/6
f 668/2/6 669/2/6 673/2/6
f 667/2/6 668/2/6 673/2/6
f 673/2/6 669/2/6 674/2/6
f 671/2/6 672/2/6 675/2/6
f 670/2/6 671/2/6 675/2/6
f 675/2/6 672/2/6 676/2/6
f 677/3/6 678/3/6 681/3/6
f 681/3/6 678/3/6 682/3/6
f 679/3/6 680/3/6 683/3/6
f 683/3/6 680/3/6 684/3/6
f 685/3/6 686/3/6 687/3/6
f 687/3/6 686/3/6 688/3/6
