# MagicaVoxel @ Ephtracy

# group
g CompactDisk

# material
mtllib CompactDisk.mtl
usemtl palette

# normals
vn -1 0 0
vn 1 0 0
vn 0 0 1
vn 0 0 -1
vn 0 -1 0
vn 0 1 0

# texcoords
vt 0.470703 0.5
vt 0.919922 0.5
vt 0.923828 0.5
vt 0.927734 0.5
vt 0.935547 0.5
vt 0.982422 0.5

# verts
v -7.5 5 0.5
v -7.5 5 -0.5
v -7.5 10 0.5
v -7.5 10 -0.5
v -6.5 3 0.5
v -6.5 3 -0.5
v -6.5 5 0.5
v -6.5 5 -0.5
v -6.5 10 0.5
v -6.5 10 -0.5
v -6.5 12 0.5
v -6.5 12 -0.5
v -5.5 2 0.5
v -5.5 2 -0.5
v -5.5 3 0.5
v -5.5 3 -0.5
v -5.5 12 0.5
v -5.5 12 -0.5
v -5.5 13 0.5
v -5.5 13 -0.5
v -4.5 1 0.5
v -4.5 1 -0.5
v -4.5 2 0.5
v -4.5 2 -0.5
v -4.5 13 0.5
v -4.5 13 -0.5
v -4.5 14 0.5
v -4.5 14 -0.5
v -2.5 0 0.5
v -2.5 0 -0.5
v -2.5 1 0.5
v -2.5 1 -0.5
v -2.5 14 0.5
v -2.5 14 -0.5
v -2.5 15 0.5
v -2.5 15 -0.5
v 1.5 6 0.5
v 1.5 6 -0.5
v 1.5 9 0.5
v 1.5 9 -0.5
v -1.5 6 0.5
v -1.5 6 -0.5
v -1.5 9 0.5
v -1.5 9 -0.5
v 2.5 0 0.5
v 2.5 0 -0.5
v 2.5 1 0.5
v 2.5 1 -0.5
v 2.5 14 0.5
v 2.5 14 -0.5
v 2.5 15 0.5
v 2.5 15 -0.5
v 4.5 1 0.5
v 4.5 1 -0.5
v 4.5 2 0.5
v 4.5 2 -0.5
v 4.5 13 0.5
v 4.5 13 -0.5
v 4.5 14 0.5
v 4.5 14 -0.5
v 5.5 2 0.5
v 5.5 2 -0.5
v 5.5 3 0.5
v 5.5 3 -0.5
v 5.5 12 0.5
v 5.5 12 -0.5
v 5.5 13 0.5
v 5.5 13 -0.5
v 6.5 3 0.5
v 6.5 3 -0.5
v 6.5 5 0.5
v 6.5 5 -0.5
v 6.5 10 0.5
v 6.5 10 -0.5
v 6.5 12 0.5
v 6.5 12 -0.5
v 7.5 5 0.5
v 7.5 5 -0.5
v 7.5 10 0.5
v 7.5 10 -0.5
v -7.5 5 0.5
v -7.5 10 0.5
v -6.5 3 0.5
v -6.5 5 0.5
v -6.5 10 0.5
v -6.5 12 0.5
v -5.5 2 0.5
v -5.5 3 0.5
v -5.5 12 0.5
v -5.5 13 0.5
v -4.5 1 0.5
v -4.5 2 0.5
v -4.5 13 0.5
v -4.5 14 0.5
v -3.5 1 0.5
v -3.5 2 0.5
v -3.5 4 0.5
v -2.5 0 0.5
v -2.5 1 0.5
v -2.5 2 0.5
v -2.5 4 0.5
v -2.5 5 0.5
v -2.5 10 0.5
v -2.5 14 0.5
v -2.5 15 0.5
v -1.5 0 0.5
v -1.5 1 0.5
v -1.5 2 0.5
v -1.5 4 0.5
v -1.5 5 0.5
v -1.5 6 0.5
v -1.5 9 0.5
v -0.5 1 0.5
v -0.5 2 0.5
v -0.5 4 0.5
v -0.5 5 0.5
v -0.5 10 0.5
v -0.5 11 0.5
v 0.5 2 0.5
v 0.5 4 0.5
v 0.5 5 0.5
v 0.5 10 0.5
v 0.5 11 0.5
v 0.5 13 0.5
v 1.5 4 0.5
v 1.5 5 0.5
v 1.5 6 0.5
v 1.5 9 0.5
v 1.5 10 0.5
v 1.5 11 0.5
v 1.5 13 0.5
v 1.5 14 0.5
v 2.5 0 0.5
v 2.5 1 0.5
v 2.5 5 0.5
v 2.5 10 0.5
v 2.5 11 0.5
v 2.5 13 0.5
v 2.5 14 0.5
v 2.5 15 0.5
v 3.5 10 0.5
v 3.5 11 0.5
v 3.5 12 0.5
v 3.5 13 0.5
v 3.5 14 0.5
v 4.5 1 0.5
v 4.5 2 0.5
v 4.5 11 0.5
v 4.5 12 0.5
v 4.5 13 0.5
v 4.5 14 0.5
v 5.5 2 0.5
v 5.5 3 0.5
v 5.5 12 0.5
v 5.5 13 0.5
v 6.5 3 0.5
v 6.5 5 0.5
v 6.5 10 0.5
v 6.5 12 0.5
v 7.5 5 0.5
v 7.5 10 0.5
v -7.5 5 -0.5
v -7.5 10 -0.5
v -6.5 3 -0.5
v -6.5 5 -0.5
v -6.5 10 -0.5
v -6.5 12 -0.5
v -5.5 2 -0.5
v -5.5 3 -0.5
v -5.5 12 -0.5
v -5.5 13 -0.5
v -4.5 1 -0.5
v -4.5 2 -0.5
v -4.5 13 -0.5
v -4.5 14 -0.5
v -3.5 1 -0.5
v -3.5 2 -0.5
v -3.5 4 -0.5
v -2.5 0 -0.5
v -2.5 1 -0.5
v -2.5 2 -0.5
v -2.5 4 -0.5
v -2.5 5 -0.5
v -2.5 10 -0.5
v -2.5 14 -0.5
v -2.5 15 -0.5
v -1.5 0 -0.5
v -1.5 1 -0.5
v -1.5 2 -0.5
v -1.5 4 -0.5
v -1.5 5 -0.5
v -1.5 6 -0.5
v -1.5 9 -0.5
v -0.5 1 -0.5
v -0.5 2 -0.5
v -0.5 4 -0.5
v -0.5 5 -0.5
v -0.5 10 -0.5
v -0.5 11 -0.5
v 0.5 2 -0.5
v 0.5 4 -0.5
v 0.5 5 -0.5
v 0.5 10 -0.5
v 0.5 11 -0.5
v 0.5 13 -0.5
v 1.5 4 -0.5
v 1.5 5 -0.5
v 1.5 6 -0.5
v 1.5 9 -0.5
v 1.5 10 -0.5
v 1.5 11 -0.5
v 1.5 13 -0.5
v 1.5 14 -0.5
v 2.5 0 -0.5
v 2.5 1 -0.5
v 2.5 5 -0.5
v 2.5 10 -0.5
v 2.5 11 -0.5
v 2.5 13 -0.5
v 2.5 14 -0.5
v 2.5 15 -0.5
v 3.5 10 -0.5
v 3.5 11 -0.5
v 3.5 12 -0.5
v 3.5 13 -0.5
v 3.5 14 -0.5
v 4.5 1 -0.5
v 4.5 2 -0.5
v 4.5 11 -0.5
v 4.5 12 -0.5
v 4.5 13 -0.5
v 4.5 14 -0.5
v 5.5 2 -0.5
v 5.5 3 -0.5
v 5.5 12 -0.5
v 5.5 13 -0.5
v 6.5 3 -0.5
v 6.5 5 -0.5
v 6.5 10 -0.5
v 6.5 12 -0.5
v 7.5 5 -0.5
v 7.5 10 -0.5
v -2.5 0 0.5
v -1.5 0 0.5
v 2.5 0 0.5
v -2.5 0 -0.5
v -1.5 0 -0.5
v 2.5 0 -0.5
v -4.5 1 0.5
v -3.5 1 0.5
v -2.5 1 0.5
v 2.5 1 0.5
v 4.5 1 0.5
v -4.5 1 -0.5
v -3.5 1 -0.5
v -2.5 1 -0.5
v 2.5 1 -0.5
v 4.5 1 -0.5
v -5.5 2 0.5
v -4.5 2 0.5
v 4.5 2 0.5
v 5.5 2 0.5
v -5.5 2 -0.5
v -4.5 2 -0.5
v 4.5 2 -0.5
v 5.5 2 -0.5
v -6.5 3 0.5
v -5.5 3 0.5
v 5.5 3 0.5
v 6.5 3 0.5
v -6.5 3 -0.5
v -5.5 3 -0.5
v 5.5 3 -0.5
v 6.5 3 -0.5
v -7.5 5 0.5
v -6.5 5 0.5
v 6.5 5 0.5
v 7.5 5 0.5
v -7.5 5 -0.5
v -6.5 5 -0.5
v 6.5 5 -0.5
v 7.5 5 -0.5
v -1.5 9 0.5
v 1.5 9 0.5
v -1.5 9 -0.5
v 1.5 9 -0.5
v -1.5 6 0.5
v 1.5 6 0.5
v -1.5 6 -0.5
v 1.5 6 -0.5
v -7.5 10 0.5
v -6.5 10 0.5
v 6.5 10 0.5
v 7.5 10 0.5
v -7.5 10 -0.5
v -6.5 10 -0.5
v 6.5 10 -0.5
v 7.5 10 -0.5
v -6.5 12 0.5
v -5.5 12 0.5
v 5.5 12 0.5
v 6.5 12 0.5
v -6.5 12 -0.5
v -5.5 12 -0.5
v 5.5 12 -0.5
v 6.5 12 -0.5
v -5.5 13 0.5
v -4.5 13 0.5
v 4.5 13 0.5
v 5.5 13 0.5
v -5.5 13 -0.5
v -4.5 13 -0.5
v 4.5 13 -0.5
v 5.5 13 -0.5
v -4.5 14 0.5
v -2.5 14 0.5
v 2.5 14 0.5
v 3.5 14 0.5
v 4.5 14 0.5
v -4.5 14 -0.5
v -2.5 14 -0.5
v 2.5 14 -0.5
v 3.5 14 -0.5
v 4.5 14 -0.5
v -2.5 15 0.5
v 2.5 15 0.5
v -2.5 15 -0.5
v 2.5 15 -0.5

# faces
f 3/1/1 2/1/1 1/1/1
f 4/1/1 2/1/1 3/1/1
f 7/1/1 6/1/1 5/1/1
f 8/1/1 6/1/1 7/1/1
f 11/1/1 10/1/1 9/1/1
f 12/1/1 10/1/1 11/1/1
f 15/1/1 14/1/1 13/1/1
f 16/1/1 14/1/1 15/1/1
f 19/1/1 18/1/1 17/1/1
f 20/1/1 18/1/1 19/1/1
f 23/3/1 22/3/1 21/3/1
f 24/3/1 22/3/1 23/3/1
f 27/1/1 26/1/1 25/1/1
f 28/1/1 26/1/1 27/1/1
f 31/4/1 30/4/1 29/4/1
f 32/4/1 30/4/1 31/4/1
f 35/1/1 34/1/1 33/1/1
f 36/1/1 34/1/1 35/1/1
f 39/6/1 38/6/1 37/6/1
f 40/6/1 38/6/1 39/6/1
f 41/6/2 42/6/2 43/6/2
f 43/6/2 42/6/2 44/6/2
f 45/1/2 46/1/2 47/1/2
f 47/1/2 46/1/2 48/1/2
f 49/1/2 50/1/2 51/1/2
f 51/1/2 50/1/2 52/1/2
f 53/1/2 54/1/2 55/1/2
f 55/1/2 54/1/2 56/1/2
f 57/5/2 58/5/2 59/5/2
f 59/5/2 58/5/2 60/5/2
f 61/1/2 62/1/2 63/1/2
f 63/1/2 62/1/2 64/1/2
f 65/4/2 66/4/2 67/4/2
f 67/4/2 66/4/2 68/4/2
f 69/1/2 70/1/2 71/1/2
f 71/1/2 70/1/2 72/1/2
f 73/1/2 74/1/2 75/1/2
f 75/1/2 74/1/2 76/1/2
f 77/1/2 78/1/2 79/1/2
f 79/1/2 78/1/2 80/1/2
f 84/1/3 82/1/3 81/1/3
f 85/1/3 82/1/3 84/1/3
f 88/1/3 84/1/3 83/1/3
f 88/1/3 86/1/3 85/1/3
f 88/1/3 85/1/3 84/1/3
f 89/1/3 86/1/3 88/1/3
f 92/1/3 88/1/3 87/1/3
f 92/1/3 90/1/3 89/1/3
f 92/1/3 89/1/3 88/1/3
f 93/1/3 90/1/3 92/1/3
f 95/3/3 92/3/3 91/3/3
f 96/1/3 94/1/3 93/1/3
f 96/3/3 92/3/3 95/3/3
f 96/1/3 93/1/3 92/1/3
f 97/1/3 94/1/3 96/1/3
f 99/2/3 96/2/3 95/2/3
f 100/3/3 97/3/3 96/3/3
f 100/2/3 96/2/3 99/2/3
f 101/1/3 94/1/3 97/1/3
f 101/3/3 97/3/3 100/3/3
f 102/1/3 94/1/3 101/1/3
f 103/1/3 94/1/3 102/1/3
f 104/1/3 94/1/3 103/1/3
f 106/4/3 99/4/3 98/4/3
f 107/5/3 100/5/3 99/5/3
f 107/4/3 99/4/3 106/4/3
f 108/2/3 101/2/3 100/2/3
f 108/5/3 100/5/3 107/5/3
f 109/3/3 102/3/3 101/3/3
f 109/2/3 101/2/3 108/2/3
f 110/6/3 103/6/3 102/6/3
f 110/3/3 102/3/3 109/3/3
f 111/6/3 103/6/3 110/6/3
f 112/6/3 103/6/3 111/6/3
f 113/1/3 107/1/3 106/1/3
f 113/4/3 108/4/3 107/4/3
f 114/5/3 109/5/3 108/5/3
f 114/4/3 108/4/3 113/4/3
f 115/2/3 110/2/3 109/2/3
f 115/5/3 109/5/3 114/5/3
f 116/6/3 111/6/3 110/6/3
f 116/2/3 110/2/3 115/2/3
f 117/1/3 105/1/3 104/1/3
f 117/6/3 103/6/3 112/6/3
f 117/1/3 104/1/3 103/1/3
f 118/1/3 105/1/3 117/1/3
f 119/4/3 115/4/3 114/4/3
f 119/1/3 114/1/3 113/1/3
f 120/5/3 116/5/3 115/5/3
f 120/4/3 115/4/3 119/4/3
f 121/6/3 111/6/3 116/6/3
f 121/5/3 116/5/3 120/5/3
f 122/3/3 118/3/3 117/3/3
f 122/6/3 117/6/3 112/6/3
f 123/1/3 105/1/3 118/1/3
f 123/3/3 118/3/3 122/3/3
f 124/1/3 105/1/3 123/1/3
f 125/1/3 120/1/3 119/1/3
f 125/4/3 121/4/3 120/4/3
f 126/6/3 111/6/3 121/6/3
f 126/4/3 121/4/3 125/4/3
f 127/6/3 111/6/3 126/6/3
f 128/6/3 122/6/3 112/6/3
f 129/2/3 123/2/3 122/2/3
f 129/6/3 122/6/3 128/6/3
f 130/3/3 124/3/3 123/3/3
f 130/2/3 123/2/3 129/2/3
f 131/1/3 105/1/3 124/1/3
f 131/3/3 124/3/3 130/3/3
f 132/1/3 105/1/3 131/1/3
f 133/1/3 119/1/3 113/1/3
f 133/1/3 113/1/3 106/1/3
f 133/1/3 125/1/3 119/1/3
f 133/1/3 126/1/3 125/1/3
f 134/1/3 126/1/3 133/1/3
f 135/6/3 127/6/3 126/6/3
f 135/1/3 126/1/3 134/1/3
f 135/6/3 129/6/3 128/6/3
f 135/6/3 128/6/3 127/6/3
f 136/5/3 130/5/3 129/5/3
f 136/6/3 129/6/3 135/6/3
f 137/2/3 131/2/3 130/2/3
f 137/5/3 130/5/3 136/5/3
f 138/3/3 132/3/3 131/3/3
f 138/2/3 131/2/3 137/2/3
f 139/1/3 105/1/3 132/1/3
f 139/3/3 132/3/3 138/3/3
f 140/1/3 105/1/3 139/1/3
f 141/1/3 135/1/3 134/1/3
f 141/4/3 137/4/3 136/4/3
f 141/1/3 136/1/3 135/1/3
f 142/5/3 138/5/3 137/5/3
f 142/4/3 137/4/3 141/4/3
f 143/5/3 138/5/3 142/5/3
f 144/2/3 139/2/3 138/2/3
f 144/5/3 138/5/3 143/5/3
f 145/2/3 139/2/3 144/2/3
f 146/1/3 141/1/3 134/1/3
f 146/1/3 142/1/3 141/1/3
f 147/1/3 142/1/3 146/1/3
f 148/4/3 143/4/3 142/4/3
f 148/1/3 142/1/3 147/1/3
f 149/5/3 145/5/3 144/5/3
f 149/4/3 143/4/3 148/4/3
f 149/5/3 144/5/3 143/5/3
f 150/5/3 145/5/3 149/5/3
f 151/5/3 145/5/3 150/5/3
f 152/1/3 148/1/3 147/1/3
f 152/1/3 149/1/3 148/1/3
f 153/1/3 149/1/3 152/1/3
f 154/4/3 150/4/3 149/4/3
f 154/1/3 149/1/3 153/1/3
f 155/4/3 150/4/3 154/4/3
f 156/1/3 154/1/3 153/1/3
f 157/1/3 154/1/3 156/1/3
f 158/1/3 154/1/3 157/1/3
f 159/1/3 154/1/3 158/1/3
f 160/1/3 158/1/3 157/1/3
f 161/1/3 158/1/3 160/1/3
f 162/1/4 163/1/4 165/1/4
f 165/1/4 163/1/4 166/1/4
f 164/1/4 165/1/4 169/1/4
f 166/1/4 167/1/4 169/1/4
f 165/1/4 166/1/4 169/1/4
f 169/1/4 167/1/4 170/1/4
f 168/1/4 169/1/4 173/1/4
f 170/1/4 171/1/4 173/1/4
f 169/1/4 170/1/4 173/1/4
f 173/1/4 171/1/4 174/1/4
f 172/3/4 173/3/4 176/3/4
f 174/1/4 175/1/4 177/1/4
f 176/3/4 173/3/4 177/3/4
f 173/1/4 174/1/4 177/1/4
f 177/1/4 175/1/4 178/1/4
f 176/2/4 177/2/4 180/2/4
f 177/3/4 178/3/4 181/3/4
f 180/2/4 177/2/4 181/2/4
f 178/1/4 175/1/4 182/1/4
f 181/3/4 178/3/4 182/3/4
f 182/1/4 175/1/4 183/1/4
f 183/1/4 175/1/4 184/1/4
f 184/1/4 175/1/4 185/1/4
f 179/4/4 180/4/4 187/4/4
f 180/5/4 181/5/4 188/5/4
f 187/4/4 180/4/4 188/4/4
f 181/2/4 182/2/4 189/2/4
f 188/5/4 181/5/4 189/5/4
f 182/3/4 183/3/4 190/3/4
f 189/2/4 182/2/4 190/2/4
f 183/6/4 184/6/4 191/6/4
f 190/3/4 183/3/4 191/3/4
f 191/6/4 184/6/4 192/6/4
f 192/6/4 184/6/4 193/6/4
f 187/1/4 188/1/4 194/1/4
f 188/4/4 189/4/4 194/4/4
f 189/5/4 190/5/4 195/5/4
f 194/4/4 189/4/4 195/4/4
f 190/2/4 191/2/4 196/2/4
f 195/5/4 190/5/4 196/5/4
f 191/6/4 192/6/4 197/6/4
f 196/2/4 191/2/4 197/2/4
f 185/1/4 186/1/4 198/1/4
f 193/6/4 184/6/4 198/6/4
f 184/1/4 185/1/4 198/1/4
f 198/1/4 186/1/4 199/1/4
f 195/4/4 196/4/4 200/4/4
f 194/1/4 195/1/4 200/1/4
f 196/5/4 197/5/4 201/5/4
f 200/4/4 196/4/4 201/4/4
f 197/6/4 192/6/4 202/6/4
f 201/5/4 197/5/4 202/5/4
f 198/3/4 199/3/4 203/3/4
f 193/6/4 198/6/4 203/6/4
f 199/1/4 186/1/4 204/1/4
f 203/3/4 199/3/4 204/3/4
f 204/1/4 186/1/4 205/1/4
f 200/1/4 201/1/4 206/1/4
f 201/4/4 202/4/4 206/4/4
f 202/6/4 192/6/4 207/6/4
f 206/4/4 202/4/4 207/4/4
f 207/6/4 192/6/4 208/6/4
f 193/6/4 203/6/4 209/6/4
f 203/2/4 204/2/4 210/2/4
f 209/6/4 203/6/4 210/6/4
f 204/3/4 205/3/4 211/3/4
f 210/2/4 204/2/4 211/2/4
f 205/1/4 186/1/4 212/1/4
f 211/3/4 205/3/4 212/3/4
f 212/1/4 186/1/4 213/1/4
f 194/1/4 200/1/4 214/1/4
f 187/1/4 194/1/4 214/1/4
f 200/1/4 206/1/4 214/1/4
f 206/1/4 207/1/4 214/1/4
f 214/1/4 207/1/4 215/1/4
f 207/6/4 208/6/4 216/6/4
f 215/1/4 207/1/4 216/1/4
f 209/6/4 210/6/4 216/6/4
f 208/6/4 209/6/4 216/6/4
f 210/5/4 211/5/4 217/5/4
f 216/6/4 210/6/4 217/6/4
f 211/2/4 212/2/4 218/2/4
f 217/5/4 211/5/4 218/5/4
f 212/3/4 213/3/4 219/3/4
f 218/2/4 212/2/4 219/2/4
f 213/1/4 186/1/4 220/1/4
f 219/3/4 213/3/4 220/3/4
f 220/1/4 186/1/4 221/1/4
f 215/1/4 216/1/4 222/1/4
f 217/4/4 218/4/4 222/4/4
f 216/1/4 217/1/4 222/1/4
f 218/5/4 219/5/4 223/5/4
f 222/4/4 218/4/4 223/4/4
f 223/5/4 219/5/4 224/5/4
f 219/2/4 220/2/4 225/2/4
f 224/5/4 219/5/4 225/5/4
f 225/2/4 220/2/4 226/2/4
f 215/1/4 222/1/4 227/1/4
f 222/1/4 223/1/4 227/1/4
f 227/1/4 223/1/4 228/1/4
f 223/4/4 224/4/4 229/4/4
f 228/1/4 223/1/4 229/1/4
f 225/5/4 226/5/4 230/5/4
f 229/4/4 224/4/4 230/4/4
f 224/5/4 225/5/4 230/5/4
f 230/5/4 226/5/4 231/5/4
f 231/5/4 226/5/4 232/5/4
f 228/1/4 229/1/4 233/1/4
f 229/1/4 230/1/4 233/1/4
f 233/1/4 230/1/4 234/1/4
f 230/4/4 231/4/4 235/4/4
f 234/1/4 230/1/4 235/1/4
f 235/4/4 231/4/4 236/4/4
f 234/1/4 235/1/4 237/1/4
f 237/1/4 235/1/4 238/1/4
f 238/1/4 235/1/4 239/1/4
f 239/1/4 235/1/4 240/1/4
f 238/1/4 239/1/4 241/1/4
f 241/1/4 239/1/4 242/1/4
f 246/4/5 244/4/5 243/4/5
f 247/1/5 245/1/5 244/1/5
f 247/4/5 244/4/5 246/4/5
f 248/1/5 245/1/5 247/1/5
f 254/3/5 250/3/5 249/3/5
f 255/2/5 251/2/5 250/2/5
f 255/3/5 250/3/5 254/3/5
f 256/2/5 251/2/5 255/2/5
f 257/1/5 253/1/5 252/1/5
f 258/1/5 253/1/5 257/1/5
f 263/1/5 260/1/5 259/1/5
f 264/1/5 260/1/5 263/1/5
f 265/1/5 262/1/5 261/1/5
f 266/1/5 262/1/5 265/1/5
f 271/1/5 268/1/5 267/1/5
f 272/1/5 268/1/5 271/1/5
f 273/1/5 270/1/5 269/1/5
f 274/1/5 270/1/5 273/1/5
f 279/1/5 276/1/5 275/1/5
f 280/1/5 276/1/5 279/1/5
f 281/1/5 278/1/5 277/1/5
f 282/1/5 278/1/5 281/1/5
f 285/6/5 284/6/5 283/6/5
f 286/6/5 284/6/5 285/6/5
f 287/6/6 288/6/6 289/6/6
f 289/6/6 288/6/6 290/6/6
f 291/1/6 292/1/6 295/1/6
f 295/1/6 292/1/6 296/1/6
f 293/1/6 294/1/6 297/1/6
f 297/1/6 294/1/6 298/1/6
f 299/1/6 300/1/6 303/1/6
f 303/1/6 300/1/6 304/1/6
f 301/1/6 302/1/6 305/1/6
f 305/1/6 302/1/6 306/1/6
f 307/1/6 308/1/6 311/1/6
f 311/1/6 308/1/6 312/1/6
f 309/4/6 310/4/6 313/4/6
f 313/4/6 310/4/6 314/4/6
f 315/1/6 316/1/6 320/1/6
f 320/1/6 316/1/6 321/1/6
f 317/2/6 318/2/6 322/2/6
f 318/5/6 319/5/6 323/5/6
f 322/2/6 318/2/6 323/2/6
f 323/5/6 319/5/6 324/5/6
f 325/1/6 326/1/6 327/1/6
f 327/1/6 326/1/6 328/1/6
