# MagicaVoxel @ Ephtracy

# group
g FloppyDisk

# material
mtllib FloppyDisk.mtl
usemtl palette

# normals
vn -1 0 0
vn 1 0 0
vn 0 0 1
vn 0 0 -1
vn 0 -1 0
vn 0 1 0

# texcoords
vt 0.00195313 0.5
vt 0.681641 0.5
vt 0.970703 0.5
vt 0.994141 0.5

# verts
v -8 1 0.5
v -8 1 -0.5
v -8 15 0.5
v -8 15 -0.5
v -7 0 0.5
v -7 0 -0.5
v -7 1 0.5
v -7 1 -0.5
v -7 15 0.5
v -7 15 -0.5
v -7 16 0.5
v -7 16 -0.5
v 5 15 0.5
v 5 15 -0.5
v 5 16 0.5
v 5 16 -0.5
v 6 14 0.5
v 6 14 -0.5
v 6 15 0.5
v 6 15 -0.5
v 7 0 0.5
v 7 0 -0.5
v 7 1 0.5
v 7 1 -0.5
v 7 13 0.5
v 7 13 -0.5
v 7 14 0.5
v 7 14 -0.5
v 8 1 0.5
v 8 1 -0.5
v 8 13 0.5
v 8 13 -0.5
v -8 1 0.5
v -8 15 0.5
v -7 0 0.5
v -7 1 0.5
v -7 15 0.5
v -7 16 0.5
v -5 1 0.5
v -5 8 0.5
v -4 3 0.5
v -4 4 0.5
v -4 5 0.5
v -4 6 0.5
v -4 9 0.5
v -4 15 0.5
v 0 10 0.5
v 0 14 0.5
v 2 10 0.5
v 2 14 0.5
v 4 3 0.5
v 4 4 0.5
v 4 5 0.5
v 4 6 0.5
v 4 9 0.5
v 4 15 0.5
v 5 1 0.5
v 5 2 0.5
v 5 3 0.5
v 5 8 0.5
v 5 14 0.5
v 5 15 0.5
v 5 16 0.5
v 6 2 0.5
v 6 3 0.5
v 6 13 0.5
v 6 14 0.5
v 6 15 0.5
v 7 0 0.5
v 7 1 0.5
v 7 13 0.5
v 7 14 0.5
v 8 1 0.5
v 8 13 0.5
v -8 1 -0.5
v -8 15 -0.5
v -7 0 -0.5
v -7 1 -0.5
v -7 15 -0.5
v -7 16 -0.5
v -5 1 -0.5
v -5 8 -0.5
v -4 3 -0.5
v -4 4 -0.5
v -4 5 -0.5
v -4 6 -0.5
v -4 9 -0.5
v -4 15 -0.5
v 0 10 -0.5
v 0 14 -0.5
v 2 10 -0.5
v 2 14 -0.5
v 4 3 -0.5
v 4 4 -0.5
v 4 5 -0.5
v 4 6 -0.5
v 4 9 -0.5
v 4 15 -0.5
v 5 1 -0.5
v 5 2 -0.5
v 5 3 -0.5
v 5 8 -0.5
v 5 14 -0.5
v 5 15 -0.5
v 5 16 -0.5
v 6 2 -0.5
v 6 3 -0.5
v 6 13 -0.5
v 6 14 -0.5
v 6 15 -0.5
v 7 0 -0.5
v 7 1 -0.5
v 7 13 -0.5
v 7 14 -0.5
v 8 1 -0.5
v 8 13 -0.5
v -7 0 0.5
v 7 0 0.5
v -7 0 -0.5
v 7 0 -0.5
v -8 1 0.5
v -7 1 0.5
v 7 1 0.5
v 8 1 0.5
v -8 1 -0.5
v -7 1 -0.5
v 7 1 -0.5
v 8 1 -0.5
v 7 13 0.5
v 8 13 0.5
v 7 13 -0.5
v 8 13 -0.5
v 6 14 0.5
v 7 14 0.5
v 6 14 -0.5
v 7 14 -0.5
v -8 15 0.5
v -7 15 0.5
v 5 15 0.5
v 6 15 0.5
v -8 15 -0.5
v -7 15 -0.5
v 5 15 -0.5
v 6 15 -0.5
v -7 16 0.5
v 5 16 0.5
v -7 16 -0.5
v 5 16 -0.5

# faces
f 3/4/1 2/4/1 1/4/1
f 4/4/1 2/4/1 3/4/1
f 7/4/1 6/4/1 5/4/1
f 8/4/1 6/4/1 7/4/1
f 11/4/1 10/4/1 9/4/1
f 12/4/1 10/4/1 11/4/1
f 13/4/2 14/4/2 15/4/2
f 15/4/2 14/4/2 16/4/2
f 17/4/2 18/4/2 19/4/2
f 19/4/2 18/4/2 20/4/2
f 21/4/2 22/4/2 23/4/2
f 23/4/2 22/4/2 24/4/2
f 25/4/2 26/4/2 27/4/2
f 27/4/2 26/4/2 28/4/2
f 29/4/2 30/4/2 31/4/2
f 31/4/2 30/4/2 32/4/2
f 36/4/3 34/4/3 33/4/3
f 37/4/3 34/4/3 36/4/3
f 39/4/3 36/4/3 35/4/3
f 39/2/3 37/2/3 36/2/3
f 40/2/3 37/2/3 39/2/3
f 41/1/3 40/1/3 39/1/3
f 42/1/3 40/1/3 41/1/3
f 43/1/3 40/1/3 42/1/3
f 44/1/3 40/1/3 43/1/3
f 45/2/3 37/2/3 40/2/3
f 46/4/3 38/4/3 37/4/3
f 46/2/3 37/2/3 45/2/3
f 47/3/3 46/3/3 45/3/3
f 48/3/3 46/3/3 47/3/3
f 49/3/3 47/3/3 45/3/3
f 49/2/3 48/2/3 47/2/3
f 50/3/3 46/3/3 48/3/3
f 50/2/3 48/2/3 49/2/3
f 51/1/3 41/1/3 39/1/3
f 51/3/3 42/3/3 41/3/3
f 52/1/3 43/1/3 42/1/3
f 52/3/3 42/3/3 51/3/3
f 53/3/3 44/3/3 43/3/3
f 53/1/3 43/1/3 52/1/3
f 54/1/3 40/1/3 44/1/3
f 54/3/3 44/3/3 53/3/3
f 55/2/3 45/2/3 40/2/3
f 55/3/3 50/3/3 49/3/3
f 55/3/3 49/3/3 45/3/3
f 56/3/3 46/3/3 50/3/3
f 56/3/3 50/3/3 55/3/3
f 56/4/3 38/4/3 46/4/3
f 57/4/3 39/4/3 35/4/3
f 57/1/3 53/1/3 52/1/3
f 57/1/3 54/1/3 53/1/3
f 57/1/3 52/1/3 51/1/3
f 57/1/3 51/1/3 39/1/3
f 58/1/3 54/1/3 57/1/3
f 59/1/3 54/1/3 58/1/3
f 60/1/3 40/1/3 54/1/3
f 60/1/3 54/1/3 59/1/3
f 60/2/3 56/2/3 55/2/3
f 60/2/3 55/2/3 40/2/3
f 61/2/3 56/2/3 60/2/3
f 62/4/3 38/4/3 56/4/3
f 62/2/3 56/2/3 61/2/3
f 63/4/3 38/4/3 62/4/3
f 64/4/3 59/4/3 58/4/3
f 64/2/3 58/2/3 57/2/3
f 65/2/3 61/2/3 60/2/3
f 65/4/3 59/4/3 64/4/3
f 65/2/3 60/2/3 59/2/3
f 66/2/3 61/2/3 65/2/3
f 67/4/3 62/4/3 61/4/3
f 67/2/3 61/2/3 66/2/3
f 68/4/3 62/4/3 67/4/3
f 69/4/3 57/4/3 35/4/3
f 70/2/3 64/2/3 57/2/3
f 70/4/3 57/4/3 69/4/3
f 70/2/3 66/2/3 65/2/3
f 70/2/3 65/2/3 64/2/3
f 71/4/3 67/4/3 66/4/3
f 71/2/3 66/2/3 70/2/3
f 72/4/3 67/4/3 71/4/3
f 73/4/3 71/4/3 70/4/3
f 74/4/3 71/4/3 73/4/3
f 75/4/4 76/4/4 78/4/4
f 78/4/4 76/4/4 79/4/4
f 77/4/4 78/4/4 81/4/4
f 78/2/4 79/2/4 81/2/4
f 81/2/4 79/2/4 82/2/4
f 81/1/4 82/1/4 83/1/4
f 83/1/4 82/1/4 84/1/4
f 84/1/4 82/1/4 85/1/4
f 85/1/4 82/1/4 86/1/4
f 82/2/4 79/2/4 87/2/4
f 79/4/4 80/4/4 88/4/4
f 87/2/4 79/2/4 88/2/4
f 87/3/4 88/3/4 89/3/4
f 89/3/4 88/3/4 90/3/4
f 87/3/4 89/3/4 91/3/4
f 89/2/4 90/2/4 91/2/4
f 90/3/4 88/3/4 92/3/4
f 91/2/4 90/2/4 92/2/4
f 81/1/4 83/1/4 93/1/4
f 83/3/4 84/3/4 93/3/4
f 84/1/4 85/1/4 94/1/4
f 93/3/4 84/3/4 94/3/4
f 85/3/4 86/3/4 95/3/4
f 94/1/4 85/1/4 95/1/4
f 86/1/4 82/1/4 96/1/4
f 95/3/4 86/3/4 96/3/4
f 82/2/4 87/2/4 97/2/4
f 91/3/4 92/3/4 97/3/4
f 87/3/4 91/3/4 97/3/4
f 92/3/4 88/3/4 98/3/4
f 97/3/4 92/3/4 98/3/4
f 88/4/4 80/4/4 98/4/4
f 77/4/4 81/4/4 99/4/4
f 94/1/4 95/1/4 99/1/4
f 95/1/4 96/1/4 99/1/4
f 93/1/4 94/1/4 99/1/4
f 81/1/4 93/1/4 99/1/4
f 99/1/4 96/1/4 100/1/4
f 100/1/4 96/1/4 101/1/4
f 96/1/4 82/1/4 102/1/4
f 101/1/4 96/1/4 102/1/4
f 97/2/4 98/2/4 102/2/4
f 82/2/4 97/2/4 102/2/4
f 102/2/4 98/2/4 103/2/4
f 98/4/4 80/4/4 104/4/4
f 103/2/4 98/2/4 104/2/4
f 104/4/4 80/4/4 105/4/4
f 100/4/4 101/4/4 106/4/4
f 99/2/4 100/2/4 106/2/4
f 102/2/4 103/2/4 107/2/4
f 106/4/4 101/4/4 107/4/4
f 101/2/4 102/2/4 107/2/4
f 107/2/4 103/2/4 108/2/4
f 103/4/4 104/4/4 109/4/4
f 108/2/4 103/2/4 109/2/4
f 109/4/4 104/4/4 110/4/4
f 77/4/4 99/4/4 111/4/4
f 99/2/4 106/2/4 112/2/4
f 111/4/4 99/4/4 112/4/4
f 107/2/4 108/2/4 112/2/4
f 106/2/4 107/2/4 112/2/4
f 108/4/4 109/4/4 113/4/4
f 112/2/4 108/2/4 113/2/4
f 113/4/4 109/4/4 114/4/4
f 112/4/4 113/4/4 115/4/4
f 115/4/4 113/4/4 116/4/4
f 119/4/5 118/4/5 117/4/5
f 120/4/5 118/4/5 119/4/5
f 125/4/5 122/4/5 121/4/5
f 126/4/5 122/4/5 125/4/5
f 127/4/5 124/4/5 123/4/5
f 128/4/5 124/4/5 127/4/5
f 129/4/6 130/4/6 131/4/6
f 131/4/6 130/4/6 132/4/6
f 133/4/6 134/4/6 135/4/6
f 135/4/6 134/4/6 136/4/6
f 137/4/6 138/4/6 141/4/6
f 141/4/6 138/4/6 142/4/6
f 139/4/6 140/4/6 143/4/6
f 143/4/6 140/4/6 144/4/6
f 145/4/6 146/4/6 147/4/6
f 147/4/6 146/4/6 148/4/6
